<?xml version="1.0" standalone="no"?>
<!DOCTYPE svg PUBLIC "-//W3C//DTD SVG 20010904//EN"
 "http://www.w3.org/TR/2001/REC-SVG-20010904/DTD/svg10.dtd">
<svg version="1.0" xmlns="http://www.w3.org/2000/svg"
 width="960.000000pt" height="720.000000pt" viewBox="0 0 960.000000 720.000000"
 preserveAspectRatio="xMidYMid meet">

<g transform="translate(0.000000,720.000000) scale(0.100000,-0.100000)"
fill="#000000" stroke="none">
<path d="M9350 7160 c0 -26 -5 -40 -13 -40 -7 0 -17 -10 -22 -22 -12 -26 -35
-36 -35 -14 0 25 -16 19 -45 -16 -22 -26 -28 -29 -37 -17 -7 11 -11 11 -15 2
-2 -7 -13 -13 -23 -13 -9 0 -23 -7 -30 -15 -7 -9 -29 -15 -51 -15 -22 0 -39
-4 -39 -10 0 -5 -6 -10 -14 -10 -7 0 -19 -7 -26 -15 -7 -8 -21 -15 -32 -15
-11 0 -31 -9 -45 -20 -18 -14 -41 -20 -74 -20 -27 0 -49 -4 -49 -9 0 -7 -35
-22 -48 -20 -2 0 -10 -8 -18 -18 -8 -11 -13 -13 -14 -5 0 20 -16 14 -48 -18
-24 -24 -39 -30 -71 -30 -23 0 -41 -4 -41 -10 0 -19 -70 -10 -118 14 -39 20
-65 25 -152 28 l-105 3 -2 -25 c0 -14 -1 -33 -2 -43 -1 -13 -6 -17 -19 -13
-12 4 -27 -3 -42 -19 -21 -22 -22 -28 -10 -35 13 -8 13 -10 -1 -10 -9 0 -31 3
-48 6 -28 6 -31 10 -31 46 0 35 -2 40 -20 35 -11 -3 -18 -2 -16 2 3 4 -12 16
-32 26 -20 11 -41 24 -45 30 -5 6 -7 4 -5 -5 1 -8 -4 -30 -12 -47 l-15 -33
-70 7 c-38 3 -73 10 -76 16 -8 11 -120 0 -133 -14 -17 -16 -86 -11 -86 6 0 11
11 15 40 15 29 0 40 4 40 15 0 11 -11 15 -40 15 -27 0 -40 -4 -40 -14 0 -17
-106 -29 -173 -20 -47 7 -47 7 -30 27 18 20 17 20 -22 14 -22 -4 -52 -7 -67
-7 -17 0 -28 -5 -28 -14 0 -10 -22 -16 -80 -21 -58 -5 -80 -11 -80 -21 0 -10
-12 -14 -40 -14 -30 0 -40 -4 -40 -16 0 -14 -9 -16 -50 -12 -27 3 -50 1 -50
-3 0 -5 5 -9 10 -9 6 0 10 -4 10 -10 0 -5 -16 -10 -35 -10 -34 0 -125 -37
-125 -51 0 -4 -36 -10 -80 -14 -69 -6 -80 -10 -80 -26 0 -17 -8 -19 -80 -19
-47 0 -80 4 -80 10 0 6 -47 10 -120 10 -74 0 -120 -4 -120 -10 0 -6 -14 -4
-34 4 -19 8 -44 12 -55 9 -15 -4 -21 -1 -21 10 0 12 14 17 58 20 48 3 44 4
-25 5 -45 1 -83 -2 -85 -7 -2 -5 -71 -7 -160 -4 -124 5 -158 9 -158 19 0 10
-13 14 -40 14 -29 0 -40 -4 -40 -15 0 -13 -33 -15 -240 -15 -207 0 -240 -2
-240 -15 0 -11 -11 -15 -40 -15 -29 0 -40 4 -40 15 0 11 -11 15 -40 15 -29 0
-40 4 -40 15 0 19 -80 22 -81 3 -1 -16 -79 -84 -79 -69 0 14 -89 15 -125 1
-15 -6 -33 -17 -41 -25 -11 -11 -37 -15 -87 -15 -44 0 -67 4 -58 9 9 6 10 11
2 15 -6 4 -11 20 -11 37 0 27 -2 29 -40 29 -36 0 -40 -2 -40 -25 0 -22 -4 -25
-40 -25 -29 0 -40 -4 -40 -15 0 -11 -11 -15 -40 -15 -29 0 -40 4 -40 15 0 11
-11 15 -40 15 -29 0 -40 -4 -40 -15 0 -11 -11 -15 -40 -15 -29 0 -40 4 -40 15
0 11 -11 15 -40 15 -29 0 -40 -4 -40 -15 0 -13 -24 -15 -160 -15 l-160 0 0
-25 0 -25 -120 0 c-100 0 -120 -2 -120 -15 0 -11 -11 -15 -40 -15 -29 0 -40 4
-40 15 0 12 -16 15 -80 15 -64 0 -80 -3 -80 -15 0 -12 -16 -15 -80 -15 l-80 0
0 40 0 40 -240 0 -240 0 0 -40 0 -40 -80 0 c-64 0 -80 3 -80 15 0 11 -11 15
-40 15 -36 0 -40 3 -40 25 l0 25 -120 0 -120 0 0 -40 0 -40 -80 0 c-64 0 -80
-3 -80 -15 0 -11 -11 -15 -40 -15 -29 0 -40 4 -40 15 0 11 -11 15 -40 15 -29
0 -40 -4 -40 -15 0 -12 -16 -15 -80 -15 -79 0 -80 0 -80 -25 l0 -25 -200 0
-200 0 0 -40 0 -40 -40 0 c-29 0 -40 4 -40 15 0 11 -11 15 -40 15 -38 0 -40
-2 -40 -30 0 -28 -2 -30 -40 -30 -22 0 -40 -4 -40 -10 0 -5 -18 -10 -40 -10
-34 0 -40 -3 -40 -20 0 -12 -15 -35 -33 -53 l-33 -33 -84 9 c-62 8 -85 7 -88
-1 -5 -17 -83 -15 -126 3 -32 14 -36 14 -36 0 0 -12 -13 -15 -59 -15 -53 0
-59 2 -54 19 5 20 -27 38 -48 26 -6 -4 -36 9 -68 28 -31 20 -63 37 -71 39 -14
3 -20 7 -54 36 -8 6 -22 12 -31 12 -8 0 -15 9 -15 20 0 17 -7 20 -40 20 l-40
0 0 -480 0 -480 80 0 c64 0 80 3 80 15 0 11 11 15 40 15 22 0 40 -4 40 -8 0
-12 189 -32 303 -32 79 0 97 -3 97 -15 0 -13 17 -14 120 -8 88 4 120 3 120 -5
0 -7 16 -12 40 -12 28 0 40 -4 40 -14 0 -10 22 -16 80 -21 69 -6 80 -10 80
-26 0 -15 7 -19 40 -19 28 0 40 -4 40 -14 0 -10 22 -16 80 -21 69 -6 80 -10
80 -26 0 -15 7 -19 40 -19 29 0 40 -4 40 -15 0 -11 11 -15 40 -15 33 0 40 -3
40 -20 0 -17 7 -20 40 -20 34 0 40 -3 40 -21 0 -20 4 -21 50 -17 45 5 53 2 69
-18 15 -20 28 -24 70 -24 28 0 51 -4 51 -9 0 -12 59 -71 71 -71 5 0 9 -6 9
-13 0 -9 12 -11 40 -9 25 3 40 0 40 -7 0 -6 17 -11 38 -11 37 0 83 -22 71 -35
-4 -3 -56 -6 -118 -6 -80 -1 -111 -5 -111 -13 0 -22 13 -26 26 -8 13 16 15 15
33 -8 19 -24 20 -24 34 -6 13 17 15 18 23 3 5 -8 25 -17 44 -20 25 -3 21 -4
-13 -3 -41 1 -47 -2 -47 -19 0 -17 2 -17 10 -5 5 8 10 10 10 4 0 -11 58 -13
76 -2 6 4 27 5 47 1 l37 -6 0 -78 c0 -72 -2 -78 -22 -81 -21 -3 -21 -3 -3 -22
15 -15 20 -16 24 -5 5 16 21 29 38 29 7 0 1 -12 -13 -27 -18 -20 -22 -29 -12
-32 7 -2 15 -8 18 -12 7 -10 31 -13 78 -11 35 2 47 32 12 32 -13 0 -18 5 -14
15 4 8 1 15 -5 15 -6 0 -11 -7 -11 -15 0 -8 -4 -15 -9 -15 -5 0 -7 9 -4 20 3
11 9 20 13 20 5 0 16 3 25 7 14 5 16 2 11 -14 -5 -17 -1 -21 25 -27 17 -3 44
-6 60 -6 19 0 29 -5 29 -15 0 -22 -38 -38 -75 -31 -30 6 -32 5 -27 -19 2 -14
7 -25 11 -25 82 -5 205 0 214 9 8 8 4 11 -16 11 -15 0 -27 5 -27 10 0 6 6 10
14 10 27 0 46 -12 46 -30 0 -22 -51 -32 -118 -26 -38 4 -43 3 -36 -12 4 -9 9
-29 12 -44 4 -28 5 -28 78 -28 l74 0 0 35 c0 31 2 34 23 26 26 -10 31 -47 5
-45 -10 1 -18 -2 -18 -7 0 -5 12 -9 26 -9 14 0 23 -4 19 -10 -3 -5 -12 -7 -20
-3 -11 3 -17 -4 -21 -26 -4 -17 -10 -28 -15 -25 -19 11 -29 -8 -12 -24 12 -12
18 -13 21 -4 2 6 12 12 23 12 11 0 19 7 19 16 0 11 5 14 17 10 9 -4 20 -1 24
6 5 7 6 -4 2 -24 l-6 -38 42 0 c22 0 41 -4 41 -10 0 -5 18 -10 40 -10 l40 0 0
-135 0 -135 -40 0 c-22 0 -40 5 -40 10 0 6 -18 10 -40 10 l-40 0 0 -45 c0 -25
-4 -45 -8 -45 -4 0 -7 18 -6 40 1 39 1 40 -32 40 -18 0 -36 -4 -39 -10 -10
-16 -55 -12 -55 5 0 8 9 15 20 15 11 0 20 4 20 9 0 13 -27 21 -45 15 -8 -4
-15 -1 -15 4 0 8 39 9 120 5 109 -5 120 -4 120 11 0 15 -12 17 -112 15 l-113
-3 -1 70 c0 39 -4 76 -8 82 -12 20 -32 14 -44 -13 -14 -30 -18 -30 -77 -5 -67
29 -128 26 -181 -7 -24 -16 -44 -31 -44 -35 0 -5 -5 -8 -11 -8 -6 0 -8 9 -4
20 5 15 2 20 -14 20 -11 0 -27 -7 -36 -16 -9 -9 -19 -14 -22 -11 -3 3 2 13 11
22 9 9 16 23 16 31 0 8 5 14 11 14 5 0 8 4 5 9 -7 10 27 21 70 21 16 0 35 5
41 11 7 7 44 10 102 8 68 -3 91 -1 91 9 0 7 -14 12 -36 12 -20 0 -33 4 -29 10
4 6 -5 8 -22 5 -15 -2 -45 -7 -65 -10 -21 -3 -38 -10 -38 -15 0 -5 -12 -2 -27
5 -21 11 -29 12 -35 2 -6 -9 -10 -8 -18 3 -8 13 -10 13 -10 0 0 -11 -3 -11
-12 -2 -20 20 -39 14 -35 -10 2 -13 2 -17 0 -10 -3 6 -9 12 -15 12 -6 0 -8 9
-5 19 5 21 -10 31 -49 31 -17 0 -24 -6 -24 -20 0 -24 -8 -25 -39 -4 -16 12
-37 15 -77 12 -41 -4 -54 -1 -54 9 0 7 -5 13 -11 13 -6 0 -8 -9 -4 -20 4 -12
2 -20 -5 -20 -6 0 -9 4 -6 8 9 15 -30 39 -67 40 -27 1 -37 -3 -37 -14 0 -13 8
-14 39 -9 46 8 55 -6 45 -72 l-6 -43 -53 0 c-40 0 -54 -4 -59 -16 -8 -21 0
-30 16 -18 7 5 31 9 53 9 l40 0 -3 -39 c-2 -21 -10 -45 -18 -53 -8 -8 -14 -18
-14 -22 0 -4 -17 -8 -37 -9 -21 -2 -47 -5 -57 -9 -17 -5 -18 -7 -5 -17 13 -10
13 -15 -2 -46 -14 -29 -18 -32 -24 -17 -4 10 -5 31 -1 47 5 29 4 30 -33 30
-26 0 -41 5 -45 16 -7 19 -26 9 -26 -15 0 -19 26 -31 68 -31 13 0 21 -4 17
-10 -3 -5 -13 -6 -21 -3 -14 5 -15 3 -5 -15 9 -18 9 -21 -3 -16 -8 3 -17 13
-19 22 -3 11 -5 9 -6 -6 -1 -22 -4 -23 -38 -18 -21 3 -62 -1 -93 -9 l-55 -14
92 3 c51 2 93 3 93 2 0 -1 4 -16 9 -34 6 -20 6 -32 0 -32 -5 0 -9 7 -9 15 0 9
-9 15 -22 15 -15 0 -19 -3 -11 -8 20 -13 -20 -88 -51 -96 -29 -7 -34 -23 -11
-32 13 -5 13 -9 3 -22 -7 -8 -11 -26 -10 -39 2 -13 -2 -31 -9 -39 -16 -19 -4
-30 16 -14 13 11 15 6 15 -43 l0 -56 43 -3 c72 -5 -383 -69 -698 -98 -83 -8
-134 -17 -141 -26 -10 -12 -69 -35 -124 -48 -23 -5 -70 -45 -122 -102 -9 -11
-26 -44 -38 -74 -20 -51 -21 -60 -10 -125 10 -56 10 -70 0 -73 -23 -8 -94 -78
-130 -128 -18 -26 -28 -44 -22 -40 19 12 14 -19 -13 -79 -23 -49 -45 -72 -45
-45 0 13 -69 13 -109 -1 -30 -11 -31 -12 -31 -75 0 -58 2 -64 23 -69 12 -4 30
-18 41 -32 18 -25 18 -26 -4 -67 -13 -22 -31 -50 -41 -62 -18 -19 -19 -61 -19
-1042 l0 -1021 54 -113 c29 -62 66 -148 81 -190 l28 -78 292 0 293 0 17 26 c9
14 19 23 22 20 3 -3 -3 -13 -13 -23 -17 -17 -16 -18 41 -21 40 -2 61 1 66 10
7 10 9 10 9 1 0 -10 125 -13 589 -13 576 0 590 0 596 20 8 26 -11 125 -44 228
-16 48 -37 116 -46 152 -10 36 -21 70 -25 75 -10 12 -25 77 -21 89 1 5 -2 12
-7 15 -5 3 -19 38 -31 76 -12 39 -39 111 -59 160 -40 98 -47 175 -19 203 14
13 10 20 -39 60 -30 24 -54 47 -54 51 0 4 9 13 19 21 11 7 18 17 15 22 -3 4 3
5 12 1 13 -5 16 -3 11 10 -4 10 -2 17 5 17 6 0 9 3 5 6 -3 4 0 19 8 35 29 55
17 65 -23 21 -40 -44 -59 -53 -48 -26 3 8 3 34 0 56 -6 32 -13 43 -40 55 -30
15 -32 19 -27 52 3 20 10 45 16 56 5 11 -11 0 -37 -24 -25 -25 -48 -42 -51
-39 -4 3 -30 -9 -58 -28 -57 -37 -90 -46 -42 -11 16 12 43 37 59 55 16 17 35
32 42 32 7 0 15 8 18 18 4 10 19 32 35 48 44 46 91 115 91 135 0 10 -9 34 -20
54 -11 20 -20 51 -20 70 0 22 -5 35 -13 35 -13 0 -37 51 -47 100 -4 20 -11 25
-35 24 -17 0 -22 1 -13 3 22 5 22 11 4 32 -7 9 -21 41 -31 71 -10 30 -27 63
-37 72 -11 9 -17 22 -13 29 6 8 10 8 16 -2 6 -11 9 -9 9 7 0 22 -28 54 -48 54
-6 0 -17 10 -24 23 -23 41 -17 62 10 35 23 -23 13 14 -13 48 -29 38 -27 39 68
49 37 4 71 13 76 19 18 21 7 87 -17 106 -12 10 -22 25 -22 34 0 8 -5 18 -10
21 -6 3 -10 -5 -10 -18 0 -18 -7 -27 -25 -31 -14 -4 -30 -4 -35 -1 -15 9 -12
65 3 65 7 0 4 7 -7 15 -11 8 -15 15 -9 15 26 0 43 -13 43 -34 0 -11 5 -28 10
-36 8 -11 9 -8 4 13 -4 19 -2 27 7 27 7 0 -2 13 -21 30 -20 16 -47 29 -63 30
-22 0 -32 -8 -55 -50 -26 -48 -42 -62 -42 -39 0 26 -42 69 -68 69 -24 0 -71
19 -48 20 5 0 3 6 -3 14 -7 8 -11 27 -9 43 2 23 -1 28 -19 27 -13 0 -25 8 -32
22 -9 20 -6 26 19 44 17 12 30 27 30 33 0 7 9 18 20 25 26 16 26 42 0 49 -21
6 -22 7 -26 68 -14 241 -35 329 -96 408 -54 70 -98 101 -180 128 l-73 24 60 7
c63 7 483 36 597 41 38 2 68 -1 68 -5 0 -4 -3 -8 -8 -8 -4 0 -6 -18 -4 -40 5
-48 19 -53 25 -7 2 17 2 14 0 -8 -2 -22 -4 -65 -4 -95 0 -43 -2 -50 -9 -30 -7
22 -8 19 -9 -17 -1 -31 -5 -43 -16 -43 -12 0 -15 -16 -15 -80 0 -64 3 -80 15
-80 12 0 15 -16 15 -80 0 -62 -3 -80 -14 -80 -20 0 -26 -86 -9 -127 7 -18 13
-50 13 -72 0 -35 4 -41 35 -55 29 -14 47 -16 95 -8 33 5 60 6 60 2 0 -3 -27
-11 -61 -16 -52 -9 -66 -8 -93 7 -36 19 -108 41 -114 34 -2 -2 14 -8 36 -14
21 -6 55 -22 74 -34 28 -20 279 -116 583 -224 39 -13 86 -31 105 -38 19 -8 91
-34 160 -59 69 -25 187 -68 262 -95 76 -28 168 -59 205 -70 38 -11 97 -30 133
-44 36 -13 76 -28 89 -32 l23 -7 -6 179 c-7 201 -14 357 -22 485 l-5 87 48
-14 c26 -8 80 -21 118 -30 39 -8 138 -31 220 -51 176 -41 152 -39 241 -25 39
7 83 13 99 15 19 2 31 11 37 26 5 13 7 25 5 27 -3 2 -44 -3 -92 -12 -48 -8
-100 -15 -116 -15 -32 0 -588 115 -596 124 -3 3 -3 11 0 19 3 9 43 20 114 30
59 9 184 29 277 44 l168 27 -6 80 c-3 45 -9 134 -12 200 l-7 118 39 -5 c21 -3
80 -9 129 -12 50 -3 115 -8 146 -11 l57 -6 6 -46 c3 -26 6 -93 7 -150 1 -56 5
-105 10 -108 8 -4 159 18 449 67 63 10 119 19 124 19 5 0 6 47 2 110 -7 103
-6 110 11 110 24 0 43 -67 43 -150 0 -71 -8 -68 140 -40 119 24 197 26 320 11
47 -6 157 -17 245 -26 253 -24 255 -24 255 -46 0 -15 -7 -19 -32 -19 -18 0
-49 -4 -68 -9 -19 -5 -62 -14 -95 -22 -54 -12 -74 -22 -75 -40 0 -7 88 6 165
25 33 8 63 12 67 8 3 -4 8 -66 10 -139 2 -72 6 -135 10 -139 4 -4 27 -3 50 2
l43 9 0 75 c0 41 -3 150 -8 243 l-7 167 37 0 38 0 0 -67 c0 -38 2 -141 5 -230
5 -149 7 -163 23 -163 18 0 18 11 11 231 l-7 231 23 -4 c17 -2 26 -13 35 -44
10 -34 19 -215 19 -362 -1 -32 1 -34 30 -29 31 4 327 70 641 142 181 42 133
42 580 0 149 -14 278 -25 288 -25 15 0 17 11 17 95 0 88 1 95 20 95 11 0 20 5
20 10 0 6 -11 10 -24 10 -14 0 -83 5 -153 10 -70 6 -191 15 -268 21 -77 5
-241 19 -365 29 -124 11 -292 24 -375 30 -82 6 -197 15 -255 20 -58 6 -199 15
-313 20 -115 5 -277 16 -360 24 -84 8 -244 22 -357 30 -113 9 -250 21 -305 27
-104 12 -149 29 -79 29 21 1 59 5 84 10 35 6 41 6 29 -3 -13 -10 -8 -12 30
-14 25 -1 48 2 51 6 8 12 60 23 60 12 0 -5 -10 -12 -22 -14 -17 -3 -14 -5 10
-6 17 0 32 3 32 8 0 5 21 9 48 8 33 -2 46 2 44 11 -3 16 8 19 83 26 54 4 58 3
41 -10 -11 -8 -38 -15 -60 -15 -23 -1 -31 -4 -18 -6 13 -3 22 -12 22 -22 0
-16 15 -19 134 -25 73 -4 146 -4 161 0 18 4 26 3 22 -3 -7 -11 81 -20 312 -30
107 -4 150 -3 155 6 4 6 20 11 37 11 16 0 38 9 50 21 20 20 22 20 40 3 17 -15
24 -16 78 -2 50 12 61 12 65 1 3 -7 20 -13 37 -13 30 0 31 1 26 35 -5 33 -4
35 28 41 50 9 70 2 68 -24 -2 -12 3 -22 10 -23 6 0 75 -2 151 -5 77 -2 141 -6
144 -8 2 -2 -22 -10 -53 -17 -44 -10 -61 -10 -76 -1 -15 10 -19 10 -17 0 2
-10 -19 -13 -79 -14 -79 0 -132 -13 -62 -15 19 0 28 -3 22 -6 -31 -12 -8 -23
46 -23 81 0 161 17 176 37 11 14 37 16 221 16 268 0 514 -9 584 -22 124 -22
258 -32 435 -32 103 0 190 2 192 5 3 3 -5 33 -17 68 -21 60 -38 218 -25 238
12 20 35 -2 29 -29 l-5 -26 23 28 c23 26 48 36 48 19 0 -5 -9 -17 -20 -27 -25
-22 -25 -42 -2 -78 l19 -27 11 22 c6 13 13 43 15 68 l4 45 48 0 c29 0 50 -5
52 -12 3 -9 -7 -12 -33 -10 -30 1 -39 -2 -42 -15 -2 -13 3 -18 17 -18 12 0 21
-6 21 -13 0 -8 -10 -13 -22 -13 -14 1 -24 -6 -26 -16 -3 -15 4 -18 32 -18 20
0 36 -4 36 -10 0 -5 -19 -10 -42 -11 l-43 0 50 -16 c28 -8 53 -20 57 -27 5 -6
5 -36 2 -67 l-6 -57 31 -7 c17 -4 29 -10 27 -13 -2 -4 36 -6 85 -4 70 3 89 1
89 -10 0 -30 491 -86 523 -60 13 12 170 9 442 -8 88 -5 186 -10 218 -10 l57 0
0 109 0 108 -172 8 c-351 14 -338 12 -338 43 0 16 9 17 93 11 50 -4 164 -9
252 -12 l160 -5 0 202 0 202 -40 58 -40 59 -3 -79 c-2 -43 -7 -81 -13 -85 -5
-3 -27 -5 -47 -3 -20 1 -45 2 -54 3 -17 1 -18 18 -18 220 l0 219 58 4 c31 2
60 3 65 1 4 -3 7 -47 7 -99 l0 -96 45 68 45 67 0 1488 0 1489 -125 0 -125 0 0
-40z m-2070 -375 c0 -11 -11 -15 -40 -15 -22 0 -40 -4 -40 -10 0 -5 -18 -10
-40 -10 -22 0 -40 5 -40 10 0 6 18 10 40 10 29 0 40 4 40 15 0 11 11 15 40 15
29 0 40 -4 40 -15z m190 -30 c-7 -8 -16 -15 -21 -15 -5 0 -9 7 -9 15 0 9 9 15
21 15 18 0 19 -2 9 -15z m-367 -32 c-13 -2 -33 -2 -45 0 -13 2 -3 4 22 4 25 0
35 -2 23 -4z m320 0 c-13 -2 -33 -2 -45 0 -13 2 -3 4 22 4 25 0 35 -2 23 -4z
m-663 -92 c0 -5 -7 -12 -16 -15 -22 -9 -24 -8 -24 9 0 8 9 15 20 15 11 0 20
-4 20 -9z m-730 -56 c0 -9 9 -15 24 -15 23 0 24 -2 15 -30 -9 -24 -17 -30 -40
-30 -16 0 -29 -4 -29 -10 0 -18 -147 -12 -176 7 l-25 16 24 23 c18 17 42 24
100 29 43 4 77 11 77 16 0 5 7 9 15 9 8 0 15 -7 15 -15z m565 -15 c-27 -5 -66
-8 -85 -8 -32 1 -31 2 10 8 25 4 63 7 85 7 38 0 37 0 -10 -7z m55 -80 c-8 -5
-24 -9 -35 -9 -16 1 -16 2 5 9 35 11 48 11 30 0z m1190 -17 c14 -7 33 -13 42
-13 19 0 33 -17 18 -22 -14 -4 14 -79 36 -95 10 -7 30 -13 45 -13 18 0 35 -10
51 -29 13 -16 32 -33 43 -39 19 -10 68 -132 68 -169 0 -22 21 -9 28 18 4 13 7
17 8 9 0 -8 -2 -25 -5 -36 -6 -22 -10 -22 -94 -1 -21 6 -20 4 5 -8 29 -15 29
-15 -25 -9 -30 3 -63 10 -72 15 -9 5 -27 9 -40 9 -13 0 -42 11 -66 25 -35 20
-44 22 -49 10 -4 -11 -23 -15 -78 -15 -40 0 -75 -4 -77 -10 -1 -5 -37 -12 -78
-16 -41 -4 -97 -15 -125 -25 -27 -11 -71 -19 -96 -19 -26 0 -66 -7 -90 -16
-29 -10 -60 -13 -89 -9 -30 4 -40 3 -31 -4 21 -14 -61 -34 -129 -32 -115 5
-137 3 -205 -13 -101 -24 -135 -38 -135 -56 -1 -12 -4 -11 -15 4 -14 19 -15
19 -15 -7 0 -36 -20 -35 -21 1 -1 16 -3 20 -6 10 -3 -11 -14 -18 -29 -18 -14
0 -23 -4 -20 -9 6 -10 -14 -16 -86 -26 -26 -4 -46 -11 -43 -15 6 -10 -60 -26
-105 -25 -19 0 -37 -2 -40 -6 -8 -10 -140 -18 -140 -8 0 5 -10 9 -22 9 -14 0
-18 -3 -11 -8 6 -4 -8 -7 -32 -8 -24 0 -55 -8 -68 -17 -13 -8 -28 -12 -33 -9
-28 19 -63 84 -74 135 -14 70 -9 76 84 100 34 9 99 28 146 42 47 14 227 66
400 116 386 110 571 162 1000 280 176 48 213 52 270 22z m205 -73 c3 -5 1 -10
-4 -10 -6 0 -11 5 -11 10 0 6 2 10 4 10 3 0 8 -4 11 -10z m-5317 -187 c17 -4
20 -8 11 -14 -7 -4 -18 -4 -24 1 -5 4 -26 10 -45 13 l-35 4 35 1 c19 1 46 -1
58 -5z m5459 -55 c-2 -13 -4 -5 -4 17 -1 22 1 32 4 23 2 -10 2 -28 0 -40z
m-5497 26 c0 -2 -13 -4 -30 -4 -16 0 -30 4 -30 8 0 5 14 7 30 4 17 -2 30 -6
30 -8z m5463 -141 c-7 -2 -19 -2 -25 0 -7 3 -2 5 12 5 14 0 19 -2 13 -5z
m-3473 -102 c0 -13 143 -36 148 -23 1 5 14 0 27 -12 16 -14 20 -24 14 -32 -15
-18 6 -27 42 -19 29 7 30 6 19 -15 -9 -18 -14 -19 -26 -9 -12 10 -17 10 -23 0
-6 -9 -19 -9 -49 -3 -49 11 -68 -10 -24 -26 43 -17 110 -21 115 -8 2 6 3 4 3
-4 -1 -11 -12 -15 -36 -13 -145 7 -170 9 -170 16 0 4 -35 8 -77 8 -91 2 -139
10 -133 24 3 6 10 9 16 7 6 -1 14 15 18 35 4 29 2 41 -11 51 -19 13 -15 14 75
15 23 1 42 5 42 9 0 4 7 8 15 8 8 0 15 -4 15 -9z m245 -41 c3 -5 -1 -10 -10
-10 -9 0 -13 5 -10 10 3 6 8 10 10 10 2 0 7 -4 10 -10z m1351 -825 c-4 -15
-14 -21 -38 -23 -18 -1 -50 -5 -71 -8 -34 -5 -38 -4 -35 12 2 13 14 19 42 22
71 7 81 14 77 60 -1 23 1 47 6 54 9 16 26 -87 19 -117z m2343 12 c9 -25 7 -54
-10 -140 -37 -194 -68 -234 -189 -244 -85 -7 -82 -19 -41 187 16 80 32 164 36
188 8 49 8 49 90 60 71 9 98 -3 114 -51z m-319 4 c0 -11 7 -101 15 -201 9
-100 13 -185 10 -191 -4 -5 -19 -9 -36 -9 -26 0 -29 3 -29 34 0 42 -9 49 -53
41 -28 -6 -35 -13 -48 -48 -12 -37 -18 -42 -47 -45 -40 -4 -44 -25 40 213 34
94 65 182 70 198 8 22 16 27 44 27 27 0 34 -4 34 -19z m-219 -30 c27 -30 27
-77 2 -199 -34 -167 -53 -188 -183 -195 -35 -2 -45 1 -44 13 1 8 14 85 29 170
15 85 30 169 32 187 6 35 15 39 98 42 38 1 55 -4 66 -18z m-215 -33 c-4 -18
-16 -87 -27 -153 -34 -204 -37 -212 -65 -218 -13 -2 -26 -2 -28 2 -2 4 43 290
64 399 0 1 14 2 31 2 30 0 31 -1 25 -32z m-186 10 c0 -2 -11 -68 -25 -148 -34
-198 -34 -193 15 -186 39 5 40 4 40 -23 0 -28 -1 -29 -67 -33 -38 -3 -72 -2
-76 2 -7 6 48 364 59 382 5 7 54 12 54 6z m1757 -14 c-3 -3 -12 -4 -19 -1 -8
3 -5 6 6 6 11 1 17 -2 13 -5z m-1922 -54 c2 -25 4 -108 6 -185 l4 -140 -27 -3
c-26 -3 -28 -1 -28 33 0 36 -1 36 -37 33 -32 -3 -38 -7 -45 -36 -9 -32 -44
-58 -60 -43 -7 6 116 349 135 379 5 7 18 12 30 10 16 -2 21 -11 22 -48z
m-1235 27 c0 -7 -9 -20 -20 -29 -15 -14 -18 -26 -15 -59 2 -25 11 -46 20 -51
13 -8 22 -38 11 -38 -14 0 -135 60 -141 70 -9 15 15 39 81 84 55 38 64 41 64
23z m3077 7 c-3 -3 -12 -4 -19 -1 -8 3 -5 6 6 6 11 1 17 -2 13 -5z m-2039 -21
c12 -10 23 -31 24 -48 3 -26 -1 -30 -24 -33 -23 -3 -28 1 -28 17 0 26 -35 29
-49 3 -5 -10 -17 -66 -27 -124 -14 -88 -15 -110 -4 -123 18 -22 28 -19 45 15
9 18 23 30 35 30 44 0 5 -84 -47 -101 -28 -9 -38 -8 -60 6 -26 17 -26 18 -20
114 10 151 33 222 80 245 41 20 50 20 75 -1z m2210 -70 l-3 -88 -65 -6 c-36
-3 -54 -7 -40 -8 112 -11 110 -9 110 -88 0 -37 -4 -74 -9 -82 -8 -12 -45 -18
-138 -20 -32 -1 -33 -3 -33 -42 l0 -40 90 3 91 3 -3 -70 -3 -70 -150 -7 c-82
-4 -158 -9 -167 -12 -10 -2 -18 1 -18 7 0 7 -1 138 -2 292 l-3 280 165 16 c91
9 169 17 173 18 4 0 6 -38 5 -86z m-2491 7 c53 -144 53 -144 40 -152 -19 -12
-37 -9 -37 7 0 11 -11 15 -39 15 -31 0 -41 -4 -46 -20 -5 -16 -15 -20 -53 -20
-44 0 -49 3 -74 43 l-28 42 0 -47 c0 -41 -3 -48 -20 -48 -18 0 -20 7 -20 83 0
45 -3 92 -6 104 -5 18 -1 25 17 32 23 8 24 6 29 -43 l5 -51 25 52 c23 48 53
74 68 59 3 -4 -7 -33 -22 -65 l-28 -58 28 -43 c16 -23 29 -38 30 -34 14 54 60
192 67 202 20 25 40 6 64 -58z m-335 0 c27 -28 30 -36 26 -79 -11 -115 -116
-163 -168 -78 -35 57 -19 136 34 168 44 27 73 24 108 -11z m2257 5 c23 -8 49
-21 57 -29 8 -9 21 -19 28 -23 20 -13 66 -79 66 -95 0 -12 -18 -16 -81 -21
-69 -4 -86 -2 -113 14 -67 41 -177 11 -210 -57 -34 -73 -11 -148 58 -184 53
-29 103 -22 149 21 l32 31 -77 -6 -78 -6 0 65 c0 47 3 63 13 60 6 -3 83 1 170
8 l157 12 0 -32 c0 -90 -42 -191 -99 -241 -61 -53 -119 -72 -217 -73 -120 -1
-228 77 -261 190 -42 147 44 311 194 366 51 18 160 19 212 0z m-2457 -22 c36
-33 14 -108 -36 -121 -27 -7 -31 -13 -34 -45 -4 -41 -26 -51 -36 -14 -8 30 -8
182 1 190 13 14 87 7 105 -10z m-241 -144 c42 -45 40 -97 -4 -146 -28 -30 -38
-35 -61 -29 -36 9 -68 62 -60 101 10 52 25 82 47 93 35 17 47 14 78 -19z
m-189 -115 c21 -58 22 -76 4 -51 -18 24 -51 21 -64 -5 -16 -35 -15 0 4 61 9
31 20 51 27 48 6 -2 20 -26 29 -53z m1043 26 c-1 -21 -6 -26 -35 -30 -27 -4
-36 -10 -38 -27 -3 -21 1 -23 37 -23 37 0 40 -2 38 -27 -2 -25 -7 -28 -40 -31
-33 -3 -38 -6 -35 -25 2 -18 10 -22 38 -22 30 0 35 -4 38 -26 3 -25 1 -26 -59
-33 -34 -3 -63 -5 -65 -4 -1 2 -4 61 -6 133 l-3 130 30 6 c17 4 46 6 65 6 30
-2 35 -5 35 -27z m-1195 1 c0 -4 -10 -7 -21 -7 -28 1 -44 -24 -35 -59 6 -22
11 -26 31 -22 28 5 34 -7 9 -17 -23 -9 -51 10 -58 38 -7 30 11 74 33 79 19 4
41 -2 41 -12z m50 -41 c0 -33 -4 -60 -10 -60 -6 0 -10 27 -10 60 0 33 4 60 10
60 6 0 10 -27 10 -60z m981 14 c-51 -87 -52 -95 -15 -155 18 -30 34 -57 34
-61 0 -5 -15 -8 -33 -8 -30 0 -36 5 -53 41 -25 55 -37 54 -38 -1 -1 -35 -5
-45 -20 -48 -10 -2 -22 1 -26 8 -4 6 -8 65 -9 131 l-2 119 25 0 c24 0 26 -3
26 -50 0 -27 5 -50 10 -50 6 0 21 25 35 55 22 50 27 55 55 55 l32 0 -21 -36z
m-1151 4 c0 -5 7 -25 16 -44 9 -19 13 -38 9 -42 -4 -4 -10 -1 -12 6 -7 19 -51
15 -56 -5 -4 -15 -5 -14 -5 2 0 27 16 76 17 53 1 -10 8 -18 16 -18 19 0 19 14
-1 34 -8 9 -12 20 -9 26 7 12 25 4 25 -12z m-90 2 c0 -6 -6 -10 -12 -9 -31 4
-38 -3 -38 -35 0 -36 16 -50 48 -40 15 5 15 4 -2 -10 -14 -12 -22 -12 -37 -3
-22 14 -26 76 -7 95 15 15 48 16 48 2z m996 2 c26 -17 54 -79 54 -121 0 -108
-98 -168 -171 -103 -83 74 -35 232 69 232 20 0 42 -4 48 -8z m-1165 -25 c-21
-21 -13 -38 14 -31 15 4 25 2 25 -5 0 -6 -9 -11 -20 -11 -11 0 -20 -4 -20 -10
0 -21 -16 -9 -17 13 -2 37 7 68 18 61 8 -4 7 -10 0 -17z m39 19 c0 -3 -4 -8
-10 -11 -5 -3 -10 -1 -10 4 0 6 5 11 10 11 6 0 10 -2 10 -4z m37 -78 c-2 -18
-4 -6 -4 27 0 33 2 48 4 33 2 -15 2 -42 0 -60z m908 34 c-7 -20 -20 -54 -29
-74 -9 -21 -16 -59 -16 -86 0 -41 -3 -48 -20 -49 -17 -2 -20 4 -20 42 0 25
-12 71 -30 113 -16 39 -30 73 -30 76 0 4 11 6 25 6 19 0 26 -7 33 -32 11 -45
30 -46 38 -3 4 24 14 39 28 45 32 12 36 3 21 -38z m-1035 29 c0 -5 -11 -11
-25 -13 -28 -6 -35 8 -7 15 28 8 32 7 32 -2z m2966 -17 c29 -8 54 -55 54 -104
0 -60 -41 -100 -102 -100 -60 0 -91 32 -91 92 0 55 17 86 56 103 35 16 52 17
83 9z m-805 -14 c24 -13 24 -29 -1 -58 -16 -19 -23 -21 -39 -13 -23 13 -61 14
-61 3 0 -4 21 -14 47 -21 64 -16 83 -36 83 -82 0 -73 -79 -107 -182 -79 -47
14 -53 23 -32 55 13 20 23 25 38 20 12 -3 36 -8 54 -12 49 -9 39 13 -13 26
-87 22 -112 86 -56 142 26 25 37 29 86 29 31 0 65 -5 76 -10z m1826 3 c-20 -2
-52 -2 -70 0 -17 2 0 4 38 4 39 0 53 -2 32 -4z m-4001 -16 c8 3 14 0 14 -6 0
-6 -9 -11 -20 -11 -11 0 -20 -7 -20 -15 0 -9 10 -15 26 -15 14 0 23 -4 20 -9
-4 -5 -14 -8 -24 -6 -9 2 -20 4 -24 4 -4 1 -7 17 -6 36 1 23 5 32 11 26 5 -5
16 -7 23 -4z m1962 -23 c3 -30 2 -31 -48 -37 -28 -3 -55 -9 -60 -12 -17 -11 0
-26 18 -16 9 4 31 4 48 0 62 -17 70 -109 13 -150 -25 -17 -40 -20 -80 -17 -28
3 -57 12 -66 20 -13 14 -13 18 1 41 15 22 20 24 45 14 32 -12 61 -4 61 17 0
19 -29 29 -46 15 -11 -9 -20 -7 -40 6 -24 15 -25 21 -22 78 l3 62 70 6 c99 8
100 8 103 -27z m682 -3 c-10 -19 -7 -102 4 -138 7 -22 -8 -34 -39 -29 -15 2
-17 16 -18 99 -2 89 -1 97 18 100 29 4 47 -11 35 -32z m166 14 c18 -28 12 -45
-18 -45 -12 0 -22 8 -25 20 -6 24 -36 23 -41 -1 -2 -11 7 -19 25 -24 41 -10
63 -34 63 -70 0 -24 -6 -34 -25 -43 -46 -21 -82 -15 -104 17 -27 38 -26 51 4
51 19 0 25 -5 25 -21 0 -16 5 -20 27 -17 42 5 39 26 -7 44 -83 33 -72 114 15
114 36 0 48 -5 61 -25z m-242 -1 c10 -26 -1 -32 -44 -27 -31 4 -41 2 -46 -11
-8 -21 -5 -24 31 -29 39 -5 39 -30 0 -37 -22 -4 -30 -11 -30 -25 0 -24 39 -33
61 -14 17 14 21 11 26 -16 3 -18 -3 -20 -70 -23 -69 -3 -73 -2 -67 17 8 27 9
101 1 138 -7 30 -6 32 26 36 77 9 106 7 112 -9z m1359 9 c-7 -2 -21 -2 -30 0
-10 3 -4 5 12 5 17 0 24 -2 18 -5z m-1557 -9 c12 -3 27 -17 33 -30 15 -33 15
-34 -14 -34 -16 0 -25 6 -25 16 0 10 -7 14 -20 12 -32 -5 -26 -21 13 -40 46
-23 61 -49 46 -82 -11 -24 -35 -36 -76 -36 -24 0 -68 53 -58 70 10 16 35 12
42 -7 8 -23 23 -32 40 -26 24 9 14 31 -24 50 -33 16 -38 23 -38 53 0 27 6 37
25 47 29 15 28 15 56 7z m-5426 -10 c0 -3 -7 -12 -15 -21 -20 -19 -32 -10 -14
11 14 15 29 21 29 10z m48 -14 c-22 -34 -41 -22 -29 18 1 1 10 2 21 2 18 0 19
-2 8 -20z m92 0 c0 -5 -2 -10 -4 -10 -3 0 -8 5 -11 10 -3 6 -1 10 4 10 6 0 11
-4 11 -10z m2980 -10 c0 -5 -4 -10 -10 -10 -5 0 -10 5 -10 10 0 6 5 10 10 10
6 0 10 -4 10 -10z m750 -75 c0 -32 -7 -52 -26 -74 -14 -17 -32 -31 -39 -31
-27 0 -63 23 -74 47 -13 28 -14 92 -2 112 13 20 21 -1 19 -49 -2 -64 41 -91
82 -50 20 20 25 45 14 74 -9 23 -34 20 -34 -3 0 -27 -17 -35 -23 -11 -8 32 3
59 27 63 32 5 56 -28 56 -78z m-214 10 c-10 -96 -17 -125 -31 -125 -7 0 -19
19 -27 43 -7 23 -17 41 -23 39 -11 -2 -12 -8 -14 -59 -1 -21 -6 -33 -15 -33
-15 0 -14 5 3 135 8 63 29 66 49 6 16 -48 32 -41 32 15 0 32 6 44 23 44 6 0 7
-25 3 -65z m-274 -42 c-3 -75 -22 -103 -68 -103 l-36 0 6 58 c14 115 16 121
45 124 42 6 56 -14 53 -79z m126 22 c1 -34 -3 -70 -10 -84 -17 -32 -53 -45
-73 -25 -20 20 -19 97 1 141 15 29 21 34 48 31 31 -3 31 -4 34 -63z m-252 -12
c-13 -135 -27 -158 -47 -78 -6 25 -15 45 -19 45 -4 0 -10 -23 -14 -51 -4 -32
-11 -48 -16 -43 -14 14 9 186 24 181 6 -2 13 -18 17 -36 11 -53 25 -57 33 -10
4 23 9 46 12 51 13 21 16 3 10 -59z m-153 25 c13 -52 19 -158 10 -158 -6 0
-13 9 -16 19 -3 14 -11 18 -26 14 -12 -3 -21 -12 -21 -19 0 -8 -5 -14 -11 -14
-12 0 -12 -1 21 103 13 42 28 77 31 77 4 0 9 -10 12 -22z m-2808 -69 c11 -17
-1 -21 -15 -4 -8 9 -8 15 -2 15 6 0 14 -5 17 -11z m-15 -33 c0 -11 -19 -15
-25 -6 -3 5 1 10 9 10 9 0 16 -2 16 -4z m4438 -33 c-4 -21 -37 -23 -558 -42
-168 -7 -372 -16 -455 -21 -363 -22 -415 -22 -415 -6 0 13 11 16 52 16 29 0
113 4 188 10 127 9 525 32 865 49 83 4 190 9 238 9 79 2 88 0 85 -15z m-4440
0 c-10 -2 -26 -2 -35 0 -10 3 -2 5 17 5 19 0 27 -2 18 -5z m5622 -17 c0 -7 -9
-16 -20 -19 -24 -6 -27 -48 -5 -67 24 -20 49 -7 70 38 23 48 39 62 74 62 57 0
85 -82 39 -114 -28 -20 -48 -20 -48 -1 0 8 6 15 14 15 22 0 31 40 13 57 -21
22 -45 10 -62 -31 -20 -47 -41 -66 -74 -66 -64 0 -99 89 -49 124 28 20 48 20
48 2z m-5217 -23 c-7 -2 -19 -2 -25 0 -7 3 -2 5 12 5 14 0 19 -2 13 -5z m6103
-24 c114 -55 165 -188 113 -292 -69 -136 -238 -176 -362 -87 -53 38 -72 69
-85 139 -12 66 -1 110 41 168 62 86 196 119 293 72z m-7146 7 c0 -15 -14 -35
-21 -30 -15 9 -10 34 6 34 8 0 15 -2 15 -4z m6704 -11 c37 -18 66 -61 66 -99
0 -25 -3 -26 -51 -26 -42 0 -52 3 -56 20 -6 23 -48 28 -56 7 -8 -21 3 -31 66
-65 74 -41 87 -54 98 -100 6 -29 4 -46 -13 -80 -18 -39 -23 -43 -47 -37 -14 4
-45 6 -68 5 -43 -1 -66 19 -56 48 3 6 -2 12 -10 12 -14 0 -53 37 -46 44 2 2
16 2 31 -1 17 -3 28 -13 33 -30 4 -19 11 -24 33 -21 21 2 27 8 27 28 0 20 -10
30 -55 52 -73 35 -101 67 -107 120 -4 37 0 48 25 77 47 56 124 75 186 46z
m-564 -4 c8 -2 4 -216 -4 -229 -16 -27 -43 -10 -81 50 l-40 62 -3 -57 c-3 -56
-4 -57 -32 -57 l-30 0 0 115 0 115 29 0 c28 0 50 -24 85 -95 9 -16 11 -11 13
30 5 74 6 75 63 66z m-270 -16 c102 -53 60 -225 -55 -225 -96 0 -149 126 -83
198 41 43 88 53 138 27z m-318 -82 c2 -46 2 -83 1 -83 -1 0 -14 5 -28 12 -23
10 -25 16 -25 78 0 72 3 79 30 77 16 -1 19 -12 22 -84z m148 61 c0 -17 -6 -28
-20 -31 -18 -5 -20 -14 -20 -90 l0 -84 -27 3 c-24 3 -28 7 -25 32 7 53 -8 136
-24 136 -9 0 -14 11 -14 30 l0 30 65 0 c63 0 65 -1 65 -26z m-612 -206 l3
-218 -43 0 -43 0 -50 82 c-28 46 -52 87 -54 93 -2 5 -12 21 -22 34 -19 23 -19
22 -19 -93 l0 -117 -42 3 c-42 3 -43 4 -46 42 -3 30 0 37 11 33 11 -4 16 6 21
40 9 70 8 82 -14 100 -17 15 -20 30 -20 115 l0 98 38 0 c40 0 32 10 163 -205
l19 -30 0 123 0 123 48 -3 47 -3 3 -217z m226 206 c23 -22 20 -54 -4 -54 -11
0 -20 5 -20 10 0 6 -7 10 -15 10 -25 0 -17 -25 15 -43 50 -30 55 -52 23 -92
-15 -19 -37 -35 -47 -35 -25 0 -56 28 -56 52 0 23 29 24 45 1 12 -16 35 -11
35 8 0 5 -16 19 -35 30 -37 22 -50 48 -41 83 10 40 72 58 100 30z m156 -9 c0
-21 -5 -25 -30 -25 -39 0 -41 -27 -2 -32 19 -2 28 -9 30 -25 3 -19 -1 -23 -25
-23 -15 0 -37 -7 -47 -15 -11 -8 -23 -15 -28 -15 -4 0 -8 36 -8 80 l0 80 55 0
c52 0 55 -1 55 -25z m-5152 -21 c15 -4 22 -15 23 -33 1 -20 2 -21 6 -7 4 16 8
11 19 -19 14 -43 8 -55 -33 -55 -16 0 -20 5 -16 20 4 15 -2 22 -23 30 -16 6
-32 17 -37 23 -6 8 -7 5 -3 -6 5 -16 2 -18 -22 -12 -34 7 -63 -18 -44 -37 9
-9 16 -7 27 8 8 10 15 13 15 7 0 -7 -9 -18 -20 -25 -25 -16 -25 -29 -1 -56 14
-17 30 -22 70 -22 28 0 51 2 51 4 0 2 3 11 6 20 4 11 0 16 -12 16 -23 0 -16 6
18 14 l27 6 -17 -32 c-22 -42 -28 -46 -57 -40 -14 2 -31 -2 -40 -11 -22 -22
-6 -27 37 -12 26 8 40 9 47 2 8 -8 11 -3 11 16 0 15 5 27 10 27 6 0 10 -13 10
-30 0 -16 5 -30 10 -30 6 0 10 9 10 20 0 11 5 20 11 20 6 0 9 -9 6 -20 -3 -11
-1 -20 4 -20 5 0 9 5 9 11 0 7 9 9 22 6 12 -3 30 -2 40 4 12 7 18 6 18 -1 0
-6 4 -9 9 -6 15 10 40 -5 35 -19 -3 -7 4 -16 15 -20 18 -6 21 -14 21 -71 l0
-64 40 0 c29 0 40 -4 40 -15 0 -8 -7 -15 -15 -15 -11 0 -15 -11 -15 -41 0 -32
3 -40 15 -35 8 3 15 1 15 -4 0 -6 -31 -10 -69 -10 -38 0 -76 -3 -85 -6 -10 -4
-16 -1 -16 9 0 8 -9 17 -20 20 -11 3 -20 10 -20 16 0 7 9 9 23 6 19 -5 22 -2
24 30 l2 35 -80 0 c-51 0 -79 -4 -79 -11 0 -6 -7 -8 -16 -5 -10 4 -14 1 -12
-6 5 -15 37 -17 56 -4 15 11 16 -6 1 -21 -6 -6 -18 -9 -26 -6 -8 3 -19 0 -23
-8 -13 -20 -22 -5 -25 38 -4 54 -4 55 -14 48 -5 -3 -13 0 -17 6 -4 8 -3 9 5 5
6 -4 14 0 17 8 3 9 12 16 20 16 8 0 14 5 14 10 0 6 -13 10 -30 10 -37 0 -39
15 -4 24 25 7 53 -13 54 -38 0 -5 7 -3 15 4 12 10 18 10 30 0 20 -17 32 -5 15
15 -7 9 -21 13 -31 10 -11 -4 -19 -2 -19 4 0 6 9 11 20 11 10 0 24 8 29 19 9
16 6 19 -21 25 -35 7 -98 -2 -98 -14 0 -4 -10 -10 -21 -13 -16 -4 -20 -10 -14
-24 13 -32 10 -58 -7 -61 -9 -2 -19 5 -22 16 -5 16 -15 19 -69 17 -37 -1 -65
2 -69 9 -6 8 -11 7 -17 -3 -8 -12 -12 -12 -25 1 -14 15 -13 17 10 22 30 8 22
26 -11 26 -17 0 -29 9 -40 30 -9 17 -11 30 -5 30 5 0 13 -12 16 -26 5 -20 11
-24 27 -20 11 3 30 0 41 -6 19 -10 20 -10 7 5 -13 16 -2 25 12 10 4 -3 27 -6
51 -6 34 1 43 -3 42 -15 0 -9 7 -18 16 -20 13 -2 16 1 12 13 -4 10 -1 21 6 25
21 13 1 30 -35 30 -19 0 -37 4 -40 10 -4 6 -14 5 -27 -3 -16 -9 -22 -9 -25 1
-3 6 -19 12 -36 11 -18 0 -26 -3 -19 -6 17 -7 15 -23 -3 -23 -9 0 -15 9 -15
21 0 20 4 21 55 16 44 -4 55 -3 55 9 0 8 5 14 10 14 6 0 10 -6 10 -14 0 -18
20 -25 45 -15 20 7 20 8 -1 8 -29 1 -33 8 -24 40 6 23 3 34 -16 57 -13 16 -23
34 -24 41 0 7 -8 17 -17 22 -16 9 -16 12 -3 21 8 5 23 7 34 4 13 -4 16 -2 11
6 -4 7 -3 15 4 19 11 7 119 -3 159 -15z m4380 -16 c-3 -45 -2 -45 -70 -47 -34
-1 -36 -3 -34 -28 4 -33 -8 -43 -49 -43 l-30 0 -3 80 -3 80 96 0 96 0 -3 -42z
m-4278 -28 c0 -65 -14 -80 -25 -27 -4 17 -12 38 -18 46 -9 10 -7 17 8 27 31
23 35 17 35 -46z m597 54 c-3 -3 -12 -4 -19 -1 -8 3 -5 6 6 6 11 1 17 -2 13
-5z m3197 -2 c3 -5 6 -94 7 -198 l1 -189 -30 -3 c-22 -2 -31 2 -34 15 -3 10
-6 98 -7 195 l-2 176 23 5 c13 2 26 5 30 6 4 0 9 -3 12 -7z m256 -32 c0 -28
-16 -73 -55 -152 -30 -61 -55 -116 -55 -121 0 -5 17 -7 39 -4 29 3 41 1 45 -9
3 -8 14 -14 24 -14 26 0 34 -11 20 -27 -9 -11 -9 -19 0 -34 10 -16 9 -19 -7
-19 -11 0 -21 -5 -23 -12 -3 -8 -12 -5 -28 10 -20 18 -35 22 -92 22 l-68 0 0
37 c0 34 11 63 81 208 16 33 29 63 29 67 0 5 -27 8 -60 8 l-60 0 0 40 0 40
105 0 105 0 0 -40z m-404 -130 c57 -173 72 -228 53 -195 -7 11 -21 30 -32 42
-15 17 -21 38 -22 85 -1 37 -9 78 -20 99 -17 36 -60 69 -89 69 -9 0 -16 5 -16
10 0 6 4 10 9 10 5 0 11 9 14 21 4 15 12 20 28 17 21 -3 30 -22 75 -158z
m-206 138 c0 -6 -11 -26 -25 -44 -14 -18 -25 -41 -25 -51 0 -10 -7 -29 -16
-42 -10 -14 -14 -33 -10 -52 4 -22 2 -29 -9 -29 -8 0 -15 -9 -15 -20 0 -20 26
-80 34 -80 3 0 11 -3 20 -6 10 -4 22 5 36 28 11 18 20 28 20 23 0 -6 -7 -20
-15 -31 -8 -12 -12 -24 -9 -26 3 -3 -7 -8 -21 -12 -14 -4 -25 -13 -25 -22 0
-11 4 -12 19 -4 27 14 29 14 36 -20 4 -16 10 -32 14 -34 4 -3 28 14 55 36 33
28 50 38 58 30 6 -6 32 -8 64 -5 l54 6 17 -39 c23 -53 24 -267 1 -289 -7 -7
-148 -8 -155 -1 -9 9 33 62 46 59 6 -2 8 4 5 12 -9 21 -38 3 -53 -33 -7 -16
-31 -41 -54 -56 -35 -24 -44 -26 -64 -15 -24 13 -32 52 -13 64 13 8 13 18 -3
38 -12 17 -14 17 -45 1 -31 -15 -34 -15 -47 2 -18 26 -29 12 -30 -39 -1 -48
-12 -53 -80 -39 -56 11 -56 34 -1 129 25 43 46 86 46 95 0 10 6 18 13 18 8 0
19 11 25 24 13 29 57 60 72 51 5 -3 10 0 10 7 0 19 -64 158 -72 158 -5 0 -8
-34 -8 -76 l0 -75 -27 3 c-31 4 -29 -6 -37 206 l-5 152 28 0 c36 0 41 -13 41
-103 0 -39 4 -67 8 -61 5 5 21 41 37 79 15 39 33 76 38 83 12 15 67 16 67 0z
m-2830 -23 c0 -8 -2 -15 -4 -15 -2 0 -6 7 -10 15 -3 8 -1 15 4 15 6 0 10 -7
10 -15z m5410 -26 c0 -45 -12 -50 -29 -13 -11 25 -15 26 -58 20 -25 -3 -65 -6
-89 -6 -37 0 -44 -3 -44 -19 0 -10 -7 -21 -15 -25 -12 -4 -15 3 -15 34 0 44
-4 43 163 47 l87 2 0 -40z m-6493 -11 c-3 -8 -6 -5 -6 6 -1 11 2 17 5 13 3 -3
4 -12 1 -19z m310 -40 c-3 -8 -6 -5 -6 6 -1 11 2 17 5 13 3 -3 4 -12 1 -19z
m33 -18 c0 -5 -4 -10 -10 -10 -5 0 -10 5 -10 10 0 6 5 10 10 10 6 0 10 -4 10
-10z m4418 -18 c2 -7 -2 -12 -10 -12 -14 1 -48 24 -48 33 0 10 54 -9 58 -21z
m-4303 8 c3 -5 1 -10 -4 -10 -6 0 -11 5 -11 10 0 6 2 10 4 10 3 0 8 -4 11 -10z
m-105 -20 c12 -8 9 -10 -13 -10 -16 0 -26 4 -22 10 8 12 16 12 35 0z m247 -26
c-3 -3 -12 -4 -19 -1 -8 3 -5 6 6 6 11 1 17 -2 13 -5z m3297 -41 c-4 -10 -8
-28 -8 -40 -1 -27 -4 -28 -27 -8 -14 13 -15 20 -5 40 13 29 53 36 40 8z
m-2764 -3 c0 -5 -5 -10 -11 -10 -5 0 -7 5 -4 10 3 6 8 10 11 10 2 0 4 -4 4
-10z m-1531 -73 c1 -5 -3 -5 -9 -2 -5 3 -10 16 -9 28 0 21 1 21 9 2 5 -11 9
-24 9 -28z m5725 37 c9 -3 16 -13 16 -21 0 -13 -3 -13 -15 -3 -19 16 -45 6
-45 -18 0 -27 29 -50 39 -33 6 9 23 11 64 6 l55 -7 4 -39 c2 -27 0 -39 -9 -39
-7 0 -13 -4 -13 -10 0 -5 -8 -10 -19 -10 -20 0 -71 43 -71 59 0 6 -16 17 -35
25 -27 11 -35 21 -35 40 0 24 23 56 40 56 5 0 15 -3 24 -6z m350 -9 c-6 -16
-24 -21 -24 -7 0 11 11 22 21 22 5 0 6 -7 3 -15z m126 5 c0 -5 -18 -10 -40
-10 -34 0 -40 -3 -40 -21 0 -11 -5 -19 -11 -17 -6 2 -10 7 -10 11 1 4 1 16 1
27 0 17 7 20 50 20 28 0 50 -4 50 -10z m115 0 c-3 -5 -13 -10 -21 -10 -11 0
-14 -18 -14 -87 0 -64 -3 -84 -11 -76 -6 6 -12 45 -12 87 -1 66 -3 76 -19 76
-10 0 -18 5 -18 10 0 6 23 10 51 10 31 0 48 -4 44 -10z m109 -12 c8 -12 12
-26 9 -31 -4 -6 -13 -1 -21 11 -17 26 -47 29 -56 6 -10 -27 -7 -34 22 -46 61
-26 79 -69 48 -111 -21 -27 -77 -19 -93 13 -16 33 2 39 27 8 15 -19 22 -21 37
-12 32 20 22 55 -22 78 -30 16 -41 28 -43 49 -2 16 2 35 9 43 18 22 65 17 83
-8z m66 -61 c0 -85 8 -107 42 -107 27 0 38 32 38 115 0 56 3 76 12 73 8 -3 13
-32 14 -86 2 -103 -10 -124 -69 -120 -54 4 -67 29 -67 131 0 62 3 77 15 77 12
0 15 -16 15 -83z m-6583 13 c-5 -22 -2 -32 11 -39 27 -15 1 -36 -27 -22 -21
12 -30 51 -12 51 5 0 13 9 16 20 10 31 18 24 12 -10z m572 -25 c1 5 6 4 12 -2
6 -6 26 -9 45 -6 l34 6 -11 -32 c-12 -34 -24 -44 -14 -11 4 14 2 20 -9 20 -8
0 -16 -10 -18 -22 -2 -14 -11 -24 -23 -26 -16 -2 -23 6 -32 37 -7 23 -13 53
-12 68 1 27 1 27 14 -7 7 -19 14 -31 14 -25z m-536 25 c3 -11 1 -23 -4 -26 -5
-3 -9 6 -9 20 0 31 6 34 13 6z m4006 -130 c6 -52 6 -89 0 -94 -5 -6 -9 17 -9
60 -1 38 -7 87 -15 108 -12 33 -12 37 0 25 8 -8 19 -52 24 -99z m-29 41 c0
-32 -6 -24 -14 19 -4 25 -3 31 4 20 5 -8 10 -26 10 -39z m-3255 19 c3 -5 1
-10 -4 -10 -6 0 -11 5 -11 10 0 6 2 10 4 10 3 0 8 -4 11 -10z m56 -5 c5 4 6
-1 3 -9 -5 -12 -9 -13 -19 -3 -7 7 -10 16 -7 22 3 5 7 4 10 -3 2 -7 8 -10 13
-7z m5179 -9 c0 -2 -7 -7 -16 -10 -8 -3 -12 -2 -9 4 6 10 25 14 25 6z m-5022
-33 c10 -23 10 -30 -2 -42 -12 -11 -18 -12 -30 -2 -11 10 -12 19 -4 42 12 36
19 36 36 2z m42 6 c0 -5 -4 -9 -10 -9 -5 0 -10 7 -10 16 0 8 5 12 10 9 6 -3
10 -10 10 -16z m3870 11 c0 -5 -5 -10 -11 -10 -5 0 -7 5 -4 10 3 6 8 10 11 10
2 0 4 -4 4 -10z m2580 -10 c21 -21 26 -40 12 -40 -5 0 -21 14 -37 30 -22 23
-25 30 -12 30 9 0 26 -9 37 -20z m155 -5 c0 -14 -8 -21 -27 -23 -35 -4 -38
-32 -4 -32 14 0 27 -4 30 -9 9 -13 -4 -42 -18 -40 -26 3 -46 -2 -46 -11 0 -5
11 -10 25 -10 24 0 51 -31 38 -44 -3 -3 -21 -6 -40 -6 -25 0 -33 4 -33 18 0 9
-10 34 -23 54 -17 28 -21 49 -19 83 l4 46 57 -3 c48 -3 56 -6 56 -23z m114
-27 c14 -45 31 -64 31 -34 0 7 6 29 14 48 14 31 18 34 51 30 l36 -4 -3 -97
c-3 -95 -3 -96 -28 -96 -23 0 -25 3 -22 43 3 51 -14 49 -24 -3 -5 -30 -10 -35
-33 -35 -23 0 -29 6 -41 48 l-14 47 -4 -47 c-3 -43 -6 -48 -28 -48 -24 0 -24
1 -24 101 l0 100 37 -3 c35 -3 38 -6 52 -50z m299 26 c22 -15 30 -66 14 -90
-11 -16 -48 -34 -71 -34 -17 0 -21 -6 -21 -30 0 -27 -3 -30 -30 -30 l-30 0 0
100 0 100 58 0 c36 0 66 -6 80 -16z m-1256 -22 c-19 -6 -44 6 -37 18 4 7 14 6
28 -2 14 -7 17 -13 9 -16z m-2775 -39 c-3 -10 -5 -2 -5 17 0 19 2 27 5 18 2
-10 2 -26 0 -35z m14 -80 c-6 -11 -11 -13 -11 -5 0 7 -4 11 -9 8 -4 -3 -6 7
-3 22 l6 27 7 -25 c5 -18 8 -6 10 40 l3 65 3 -57 c2 -32 -1 -66 -6 -75z
m-4051 96 c0 -5 -4 -9 -10 -9 -5 0 -10 7 -10 16 0 8 5 12 10 9 6 -3 10 -10 10
-16z m4780 6 c7 -9 8 -15 2 -15 -5 0 -12 7 -16 15 -3 8 -4 15 -2 15 2 0 9 -7
16 -15z m59 -40 c1 -32 -3 -55 -9 -55 -6 0 -10 24 -10 55 0 30 4 55 8 55 5 0
10 -25 11 -55z m91 30 c0 -8 -8 -11 -20 -8 -17 5 -20 0 -21 -31 -2 -48 -3 -53
-11 -62 -5 -4 -8 18 -8 49 0 42 4 58 17 65 20 12 43 5 43 -13z m2058 -9 c-10
-7 -18 -21 -18 -31 0 -15 -6 -17 -36 -12 -20 3 -45 14 -56 24 -20 18 -19 18
43 24 35 3 69 6 74 7 6 1 2 -5 -7 -12z m-1490 -24 c-10 -2 -18 -11 -19 -20 0
-14 -2 -13 -8 3 -9 23 4 36 28 27 14 -6 14 -7 -1 -10z m92 -8 c0 -13 -3 -14
-13 -5 -8 6 -17 8 -20 4 -12 -11 -7 -40 8 -53 8 -7 15 -27 14 -44 l-1 -31 -8
33 c-4 18 -16 39 -25 46 -27 20 -13 66 20 66 16 0 25 -6 25 -16z m93 -43 c-2
-50 -27 -110 -40 -97 -3 3 -1 11 5 19 16 19 26 113 13 121 -13 8 -31 -32 -38
-86 -3 -21 -9 -38 -13 -38 -8 0 -4 35 12 98 10 38 14 43 37 40 25 -3 26 -6 24
-57z m-1726 27 c-3 -8 -6 -5 -6 6 -1 11 2 17 5 13 3 -3 4 -12 1 -19z m-2558 8
c-10 -9 -79 -14 -79 -5 0 5 19 9 42 9 23 0 39 -2 37 -4z m-159 -16 c0 -5 -8
-11 -17 -11 -17 -1 -17 -2 0 -6 15 -4 17 -19 17 -124 l0 -119 -40 0 -40 0 0
-40 0 -40 -50 0 -50 0 0 80 c0 47 4 80 10 80 6 0 10 9 10 20 0 12 -7 20 -16
20 -9 0 -18 9 -21 20 -3 11 -10 20 -15 20 -5 0 -8 21 -6 46 l3 46 94 4 c52 3
97 7 100 9 8 9 21 5 21 -5z m1783 -7 c12 -7 8 -53 -5 -53 -16 0 -58 41 -58 57
0 10 8 11 28 7 15 -4 30 -9 35 -11z m704 -5 c-3 -8 -6 -5 -6 6 -1 11 2 17 5
13 3 -3 4 -12 1 -19z m-2322 2 c-3 -5 -25 -9 -48 -8 l-42 1 45 7 c25 4 46 8
48 8 2 1 0 -2 -3 -8z m5369 -57 c-22 -36 -42 -39 -69 -12 l-26 25 27 28 28 27
25 -26 c20 -20 23 -29 15 -42z m-1279 37 c3 -5 2 -10 -4 -10 -5 0 -13 5 -16
10 -3 6 -2 10 4 10 5 0 13 -4 16 -10z m-1435 -37 c-11 -17 -11 -17 -6 0 3 10
6 24 7 30 0 9 2 9 5 0 3 -7 0 -20 -6 -30z m727 15 c-3 -8 -6 -5 -6 6 -1 11 2
17 5 13 3 -3 4 -12 1 -19z m-2139 -42 c0 -24 2 -48 5 -53 9 -14 100 -15 182
-4 39 6 117 15 175 20 120 12 185 20 217 26 12 3 24 1 27 -3 3 -5 -7 -9 -22
-10 -16 0 -127 -14 -248 -31 -493 -69 -485 -68 -818 -38 -11 1 -22 8 -24 16
-4 12 9 13 79 6 147 -13 168 -14 174 -4 4 5 13 9 21 9 8 0 13 -4 9 -9 -3 -5 3
-12 14 -16 24 -7 73 4 65 16 -3 5 0 9 5 9 6 0 11 -4 11 -8 0 -4 15 -6 34 -4
28 3 35 9 40 33 3 16 1 40 -4 53 -11 29 -5 36 31 36 27 0 28 -2 27 -44z m1242
30 c0 -2 -9 -6 -20 -9 -11 -3 -18 -1 -14 4 5 9 34 13 34 5z m-97 -13 c-7 -2
-19 -2 -25 0 -7 3 -2 5 12 5 14 0 19 -2 13 -5z m-378 -13 c-11 -5 -33 -8 -50
-8 -29 1 -29 1 5 8 49 10 69 10 45 0z m420 0 c-3 -5 -18 -9 -33 -9 l-27 1 30
8 c17 4 31 8 33 9 2 0 0 -3 -3 -9z m-3675 -59 c-3 -33 -10 -64 -14 -68 -5 -4
-6 0 -3 10 4 10 7 41 7 68 0 27 4 49 8 49 4 0 5 -27 2 -59z m3881 36 c-10 -9
-11 -8 -5 6 3 10 9 15 12 12 3 -3 0 -11 -7 -18z m1512 8 c-3 -9 -8 -14 -10
-11 -3 3 -2 9 2 15 9 16 15 13 8 -4z m-2240 -2 c-7 -2 -21 -2 -30 0 -10 3 -4
5 12 5 17 0 24 -2 18 -5z m440 0 c-7 -2 -19 -2 -25 0 -7 3 -2 5 12 5 14 0 19
-2 13 -5z m-4478 -53 c3 -5 17 -10 30 -10 13 0 27 -4 30 -10 4 -6 -6 -7 -27
-2 -18 4 -50 7 -70 7 -44 0 -46 2 -15 15 30 12 45 12 52 0z m3200 0 c-27 -12
-35 -12 -35 0 0 6 12 10 28 9 24 0 25 -1 7 -9z m5191 -82 c8 -12 6 -109 -2
-118 -12 -11 -24 29 -24 78 0 50 10 66 26 40z m-7506 -33 c0 -14 -2 -25 -4
-25 -2 0 -6 11 -8 25 -3 14 -1 25 3 25 5 0 9 -11 9 -25z m14 -50 c3 -8 1 -15
-4 -15 -6 0 -10 7 -10 15 0 8 2 15 4 15 2 0 6 -7 10 -15z m876 -105 c0 -5 -2
-10 -4 -10 -3 0 -8 5 -11 10 -3 6 -1 10 4 10 6 0 11 -4 11 -10z m58 -2 c-6
-18 -28 -21 -28 -4 0 9 7 16 16 16 9 0 14 -5 12 -12z m-861 -300 c-3 -7 -5 -2
-5 12 0 14 2 19 5 13 2 -7 2 -19 0 -25z m1086 -25 c-7 -2 -19 -2 -25 0 -7 3
-2 5 12 5 14 0 19 -2 13 -5z m-2683 -123 c16 -9 17 -15 9 -39 -6 -17 -17 -35
-25 -42 -7 -6 -12 -15 -9 -19 3 -5 1 -11 -4 -14 -5 -4 -13 4 -17 16 -4 13 -18
36 -31 52 l-25 29 29 13 c36 16 50 16 73 4z m1687 -22 c-3 -7 -5 -2 -5 12 0
14 2 19 5 13 2 -7 2 -19 0 -25z m-94 -5 c-7 -2 -19 -2 -25 0 -7 3 -2 5 12 5
14 0 19 -2 13 -5z m-46 -9 c-3 -3 -12 -4 -19 -1 -8 3 -5 6 6 6 11 1 17 -2 13
-5z m-470 -66 c-3 -8 -6 -5 -6 6 -1 11 2 17 5 13 3 -3 4 -12 1 -19z m3 -48 c0
-5 -9 -10 -19 -10 -11 0 -23 5 -26 10 -4 6 5 10 19 10 14 0 26 -4 26 -10z
m247 -49 c1 -45 0 -49 -32 -64 -20 -9 -37 -12 -40 -7 -6 10 52 120 63 120 4 0
8 -22 9 -49z m672 -10 c11 -7 10 -11 -6 -19 -15 -9 -19 -7 -19 9 0 21 4 23 25
10z m-775 -73 c36 -40 66 -82 66 -93 -1 -20 -1 -20 -15 -1 -8 11 -15 16 -15
12 0 -5 -7 -3 -15 4 -8 7 -15 9 -15 5 0 -14 -36 39 -49 73 -8 17 -20 32 -27
32 -8 0 -14 5 -14 10 0 6 -22 10 -49 10 -28 0 -53 5 -56 10 -4 6 18 10 59 10
l64 0 66 -72z m116 12 c0 -5 -7 -10 -15 -10 -8 0 -15 -8 -15 -18 0 -11 -8 -18
-20 -19 -29 -2 -25 20 8 39 31 20 42 22 42 8z m55 -20 c4 -6 -5 -10 -20 -10
-15 0 -24 4 -20 10 3 6 12 10 20 10 8 0 17 -4 20 -10z m-265 -4 c0 -11 -19
-15 -25 -6 -3 5 1 10 9 10 9 0 16 -2 16 -4z m1667 -212 c-3 -3 -12 -4 -19 -1
-8 3 -5 6 6 6 11 1 17 -2 13 -5z m-37 -14 c8 -5 11 -10 5 -10 -5 0 -17 5 -25
10 -8 5 -10 10 -5 10 6 0 17 -5 25 -10z m117 -26 c-3 -3 -12 -4 -19 -1 -8 3
-5 6 6 6 11 1 17 -2 13 -5z m126 -51 c-7 -2 -19 -2 -25 0 -7 3 -2 5 12 5 14 0
19 -2 13 -5z m-1571 -157 c13 -18 9 -28 -9 -24 -10 2 -18 8 -18 13 0 6 -4 16
-8 22 -10 16 24 5 35 -11z m-622 -1718 c0 -13 -7 -32 -15 -42 -8 -11 -15 -30
-15 -43 0 -13 -4 -23 -10 -23 -5 0 -10 5 -10 11 0 5 -5 7 -12 3 -9 -6 -9 -9 0
-12 14 -4 16 -32 3 -32 -5 0 -7 -9 -4 -20 4 -16 2 -19 -11 -14 -9 3 -13 10
-10 15 3 5 1 9 -4 9 -6 0 -12 -7 -16 -15 -3 -8 -10 -15 -16 -15 -5 0 5 30 24
68 19 37 40 82 46 100 15 38 50 46 50 10z m-85 -30 c-13 -42 -58 -106 -72
-101 -7 3 -13 10 -13 15 0 6 7 7 16 4 8 -3 12 -2 9 4 -3 5 3 20 15 32 11 12
18 28 16 34 -5 12 12 34 27 34 4 0 5 -10 2 -22z m237 -34 c-2 -24 -8 -44 -12
-44 -5 0 -21 -13 -37 -30 -18 -19 -34 -28 -45 -24 -13 4 -18 0 -18 -16 0 -12
-8 -29 -17 -38 -16 -16 -16 -16 -10 0 5 15 1 18 -23 18 -37 0 -38 15 -8 73 12
23 24 56 28 72 5 26 11 30 37 30 17 0 34 2 37 6 3 3 20 3 38 1 32 -4 33 -4 30
-48z m-344 -128 c-7 -8 -15 -12 -17 -11 -5 6 10 25 20 25 5 0 4 -6 -3 -14z
m172 -26 c0 -5 -2 -10 -4 -10 -3 0 -8 5 -11 10 -3 6 -1 10 4 10 6 0 11 -4 11
-10z m-300 -20 c0 -5 -5 -10 -11 -10 -5 0 -7 5 -4 10 3 6 8 10 11 10 2 0 4 -4
4 -10z"/>
<path d="M7445 6384 c-110 -30 -252 -68 -315 -85 -63 -16 -144 -38 -180 -49
-36 -10 -148 -42 -250 -70 -102 -28 -230 -64 -285 -80 -130 -38 -303 -87 -385
-110 -57 -16 -65 -21 -64 -41 2 -35 8 -58 29 -114 22 -60 24 -62 33 -49 4 5
52 22 107 37 242 65 417 110 660 171 143 35 339 85 435 110 96 24 229 59 295
76 66 17 136 35 156 40 l37 10 -20 53 c-11 28 -22 70 -24 92 -6 49 -11 65 -21
64 -4 0 -98 -25 -208 -55z m204 -38 c-2 -2 -17 -6 -34 -10 -22 -5 -26 -4 -15
4 14 9 59 15 49 6z m-134 -37 c-38 -10 -74 -17 -80 -15 -12 3 103 34 130 34
11 0 -11 -8 -50 -19z m-228 -65 c-3 -3 -12 -4 -19 -1 -8 3 -5 6 6 6 11 1 17
-2 13 -5z"/>
<path d="M7940 6174 c0 -8 5 -12 10 -9 6 4 8 11 5 16 -9 14 -15 11 -15 -7z"/>
<path d="M7976 6181 c-4 -7 -5 -15 -2 -18 9 -9 19 4 14 18 -4 11 -6 11 -12 0z"/>
<path d="M6668 5933 c7 -3 16 -2 19 1 4 3 -2 6 -13 5 -11 0 -14 -3 -6 -6z"/>
<path d="M6428 5853 c7 -3 16 -2 19 1 4 3 -2 6 -13 5 -11 0 -14 -3 -6 -6z"/>
<path d="M4720 5816 c0 -2 11 -6 25 -8 14 -3 25 -1 25 3 0 5 -11 9 -25 9 -14
0 -25 -2 -25 -4z"/>
<path d="M8477 5023 c-3 -21 -12 -74 -21 -118 -29 -160 -29 -145 -1 -145 27 0
40 18 60 88 19 69 38 190 30 202 -3 5 -19 10 -34 10 -25 0 -29 -4 -34 -37z"/>
<path d="M8226 4905 c-9 -30 -19 -61 -22 -70 -5 -11 1 -15 20 -15 26 0 26 1
26 70 0 39 -2 70 -4 70 -3 0 -12 -25 -20 -55z"/>
<path d="M7980 4988 c-9 -22 -50 -230 -50 -255 0 -24 46 -14 58 12 30 65 54
227 38 253 -12 19 -36 14 -46 -10z"/>
<path d="M7456 4868 c-3 -7 -11 -35 -20 -62 -9 -27 -16 -51 -16 -53 0 -2 11
-3 25 -3 24 0 25 2 25 65 0 61 -6 81 -14 53z"/>
<path d="M6183 4913 c-18 -7 -16 -30 3 -37 21 -8 34 1 34 25 0 18 -12 23 -37
12z"/>
<path d="M9392 4833 c-43 -3 -53 -7 -48 -19 3 -9 6 -24 6 -35 0 -17 8 -19 85
-19 47 0 85 4 85 9 0 5 -36 13 -80 17 -116 10 -100 34 23 34 31 0 57 5 57 10
0 10 -19 10 -128 3z m31 -60 c-13 -2 -33 -2 -45 0 -13 2 -3 4 22 4 25 0 35 -2
23 -4z"/>
<path d="M6987 4884 c-13 -14 -7 -54 8 -54 16 0 18 14 6 43 -3 10 -10 15 -14
11z"/>
<path d="M6613 4875 c-43 -30 -32 -115 16 -115 44 0 69 80 35 114 -19 20 -24
20 -51 1z"/>
<path d="M6430 4840 c0 -23 5 -30 19 -30 21 0 33 22 25 45 -4 8 -15 15 -25 15
-14 0 -19 -7 -19 -30z"/>
<path d="M6176 4718 c-22 -31 -20 -71 5 -94 19 -17 23 -17 47 -3 21 11 28 24
30 53 5 60 -50 90 -82 44z"/>
<path d="M6038 4654 c-5 -4 -8 -16 -8 -28 0 -14 3 -17 11 -9 6 6 9 19 7 28 -1
9 -6 13 -10 9z"/>
<path d="M6611 4564 c-12 -15 -21 -34 -21 -44 0 -28 39 -70 65 -70 13 0 29 10
39 25 49 75 -29 158 -83 89z"/>
<path d="M8386 4555 c-22 -23 -29 -56 -17 -88 14 -36 54 -40 78 -9 14 19 17
71 5 88 -13 21 -49 25 -66 9z"/>
<path d="M5739 4458 c0 -7 -4 -34 -8 -60 -7 -43 -6 -48 10 -48 25 0 41 33 37
78 -2 26 -8 38 -20 40 -10 2 -18 -2 -19 -10z"/>
<path d="M5873 4478 c-18 -23 -24 -105 -9 -117 19 -16 32 5 38 61 6 51 -10 80
-29 56z"/>
<path d="M5497 4406 c-10 -26 -8 -56 3 -56 16 0 22 24 12 50 -8 20 -9 21 -15
6z"/>
<path d="M9018 4130 c-57 -62 -24 -169 57 -184 38 -7 70 3 104 33 21 18 25 31
25 76 1 47 -2 56 -29 79 -24 21 -41 26 -80 26 -43 0 -54 -5 -77 -30z"/>
<path d="M7842 4174 c-50 -35 -9 -114 51 -99 56 14 37 115 -22 115 -3 0 -17
-7 -29 -16z"/>
<path d="M2310 4180 c0 -5 5 -10 11 -10 5 0 7 5 4 10 -3 6 -8 10 -11 10 -2 0
-4 -4 -4 -10z"/>
<path d="M2236 4157 c3 -10 9 -15 12 -12 3 3 0 11 -7 18 -10 9 -11 8 -5 -6z"/>
<path d="M2188 3913 c6 -2 18 -2 25 0 6 3 1 5 -13 5 -14 0 -19 -2 -12 -5z"/>
<path d="M2157 3883 c-4 -3 -7 -11 -7 -17 0 -6 5 -5 12 2 6 6 9 14 7 17 -3 3
-9 2 -12 -2z"/>
<path d="M2080 3800 c0 -6 7 -10 15 -10 8 0 15 2 15 4 0 2 -7 6 -15 10 -8 3
-15 1 -15 -4z"/>
<path d="M9470 3675 c0 -8 6 -15 14 -15 8 0 16 7 20 15 4 10 -1 15 -14 15 -11
0 -20 -7 -20 -15z"/>
<path d="M951 124 c0 -11 3 -14 6 -6 3 7 2 16 -1 19 -3 4 -6 -2 -5 -13z"/>
<path d="M3980 7036 c0 -9 30 -14 35 -6 4 6 -3 10 -14 10 -12 0 -21 -2 -21 -4z"/>
<path d="M3950 7010 c0 -5 5 -10 10 -10 6 0 10 5 10 10 0 6 -4 10 -10 10 -5 0
-10 -4 -10 -10z"/>
<path d="M7640 6944 c0 -8 5 -12 10 -9 6 3 10 10 10 16 0 5 -4 9 -10 9 -5 0
-10 -7 -10 -16z"/>
<path d="M7360 6870 c0 -5 18 -10 40 -10 22 0 40 5 40 10 0 6 -18 10 -40 10
-22 0 -40 -4 -40 -10z"/>
<path d="M1560 4900 c0 -5 9 -10 20 -10 11 0 20 5 20 10 0 6 -9 10 -20 10 -11
0 -20 -4 -20 -10z"/>
<path d="M1670 4865 c-11 -13 -1 -15 83 -15 75 0 96 3 101 15 4 13 -9 15 -83
15 -67 0 -92 -4 -101 -15z"/>
<path d="M1952 4795 c0 -16 2 -22 5 -12 2 9 2 23 0 30 -3 6 -5 -1 -5 -18z"/>
<path d="M2314 4570 c1 -8 10 -16 21 -17 15 -1 15 0 3 3 -9 3 -19 11 -21 17
-2 7 -3 5 -3 -3z"/>
<path d="M1668 4553 c-20 -5 -22 -12 -8 -33 6 -10 10 -11 10 -2 0 6 5 12 10
12 6 0 10 -7 10 -15 0 -10 8 -13 28 -9 15 2 56 6 92 7 63 3 86 19 35 25 -14 2
-23 8 -20 13 4 5 2 9 -4 9 -5 0 -11 -6 -13 -12 -6 -17 -99 -19 -113 -3 -5 6
-18 10 -27 8z"/>
<path d="M2062 4524 l3 -39 58 2 c54 2 58 1 52 -18 -6 -16 -3 -20 11 -17 12 2
19 13 21 31 1 21 -3 28 -23 33 -25 6 -33 29 -11 37 6 2 -1 4 -18 4 -16 0 -24
-2 -17 -4 6 -3 12 -11 12 -18 0 -16 -25 -26 -44 -19 -8 3 -16 -2 -19 -13 -3
-10 -5 -3 -4 16 1 21 -3 36 -11 39 -10 3 -13 -6 -10 -34z"/>
<path d="M1597 4530 c3 -11 14 -20 24 -20 23 0 24 7 5 26 -21 20 -35 17 -29
-6z"/>
<path d="M2180 4540 c-12 -8 -11 -10 7 -10 12 0 25 5 28 10 8 13 -15 13 -35 0z"/>
<path d="M2250 4540 c0 -5 7 -10 15 -10 8 0 15 5 15 10 0 6 -7 10 -15 10 -8 0
-15 -4 -15 -10z"/>
<path d="M240 4530 c0 -6 7 -10 15 -10 8 0 15 2 15 4 0 2 -7 6 -15 10 -8 3
-15 1 -15 -4z"/>
<path d="M40 4520 c0 -5 5 -10 10 -10 6 0 10 5 10 10 0 6 -4 10 -10 10 -5 0
-10 -4 -10 -10z"/>
<path d="M178 4523 c7 -3 16 -2 19 1 4 3 -2 6 -13 5 -11 0 -14 -3 -6 -6z"/>
<path d="M1440 4520 c0 -15 46 -23 85 -16 56 11 41 26 -25 26 -33 0 -60 -4
-60 -10z"/>
<path d="M2226 4523 c-3 -3 -3 -18 1 -33 4 -20 -1 -34 -16 -49 -19 -19 -20
-23 -7 -36 16 -16 30 -20 22 -6 -3 5 6 9 19 9 14 0 28 -4 31 -9 3 -5 14 -9 25
-9 10 0 19 -3 19 -7 0 -13 -122 -7 -155 6 -32 13 -99 6 -90 -10 4 -5 1 -9 -4
-9 -6 0 -11 -5 -11 -10 0 -7 18 -8 50 -4 31 4 55 2 63 -4 9 -8 60 -10 148 -8
74 1 121 0 104 -4 -28 -6 -28 -6 15 -13 37 -5 48 -3 60 13 8 10 24 20 34 22
11 1 19 8 18 13 -1 6 -43 10 -101 10 -99 0 -129 8 -101 26 13 7 13 10 1 18 -9
6 -10 11 -2 15 21 13 11 34 -20 40 -17 3 -38 1 -47 -5 -14 -8 -12 -9 10 -5 15
4 30 2 33 -4 4 -6 -11 -10 -39 -10 -34 0 -46 4 -46 15 0 9 9 15 21 15 11 0 19
5 17 12 -5 13 -43 29 -52 21z"/>
<path d="M1753 4483 c20 -2 54 -2 75 0 20 2 3 4 -38 4 -41 0 -58 -2 -37 -4z"/>
<path d="M2370 4440 c0 -5 5 -10 10 -10 6 0 10 5 10 10 0 6 -4 10 -10 10 -5 0
-10 -4 -10 -10z"/>
<path d="M1714 4424 c3 -9 6 -22 6 -30 0 -10 12 -14 40 -14 23 0 40 5 40 11 0
6 -7 9 -15 5 -8 -3 -15 -1 -15 4 0 6 -9 10 -20 10 -11 0 -20 7 -20 15 0 8 -5
15 -11 15 -6 0 -8 -7 -5 -16z"/>
<path d="M1625 4420 c-3 -5 -2 -15 1 -24 7 -17 54 -22 54 -6 0 6 -5 10 -11 10
-5 0 -8 4 -5 9 3 5 -3 11 -14 14 -11 3 -22 1 -25 -3z"/>
<path d="M1380 4399 c0 -5 5 -7 10 -4 6 3 10 8 10 11 0 2 -4 4 -10 4 -5 0 -10
-5 -10 -11z"/>
<path d="M1421 4387 c-79 -16 -43 -20 127 -18 34 1 52 5 52 14 0 14 -112 17
-179 4z"/>
<path d="M793 4360 c2 -21 8 -25 40 -28 23 -2 37 1 37 8 0 6 -10 11 -22 10
-38 -3 -46 -1 -52 18 -3 10 -4 6 -3 -8z"/>
<path d="M915 4350 c-40 -7 -36 -10 18 -14 16 -1 27 3 27 11 0 7 -1 12 -2 12
-2 -1 -21 -5 -43 -9z"/>
<path d="M1935 4350 c3 -5 10 -10 16 -10 5 0 9 5 9 10 0 6 -7 10 -16 10 -8 0
-12 -4 -9 -10z"/>
<path d="M975 4340 c3 -5 10 -10 16 -10 5 0 9 5 9 10 0 6 -7 10 -16 10 -8 0
-12 -4 -9 -10z"/>
<path d="M1702 4318 c5 -15 28 -18 29 -3 0 6 -7 12 -17 13 -10 3 -15 -1 -12
-10z"/>
<path d="M2218 4323 c7 -3 16 -2 19 1 4 3 -2 6 -13 5 -11 0 -14 -3 -6 -6z"/>
<path d="M1470 4301 c0 -13 8 -18 35 -19 60 -2 54 27 -6 34 -23 3 -29 0 -29
-15z"/>
<path d="M1400 4286 c0 -9 7 -16 16 -16 9 0 14 5 12 12 -6 18 -28 21 -28 4z"/>
<path d="M1200 4260 c0 -18 7 -20 80 -20 47 0 80 4 80 10 0 9 -66 16 -117 11
-13 -1 -23 3 -23 9 0 5 -4 10 -10 10 -5 0 -10 -9 -10 -20z"/>
<path d="M1658 4273 c7 -3 16 -2 19 1 4 3 -2 6 -13 5 -11 0 -14 -3 -6 -6z"/>
<path d="M2480 4250 c0 -5 5 -10 10 -10 6 0 10 5 10 10 0 6 -4 10 -10 10 -5 0
-10 -4 -10 -10z"/>
<path d="M831 4241 c-9 -6 -10 -11 -2 -15 6 -4 11 -3 11 2 0 6 10 8 23 5 18
-4 19 -3 7 6 -18 13 -21 13 -39 2z"/>
<path d="M2119 4231 c11 -19 51 -36 51 -21 0 10 -40 40 -53 40 -4 0 -3 -8 2
-19z"/>
<path d="M488 4233 c7 -3 16 -2 19 1 4 3 -2 6 -13 5 -11 0 -14 -3 -6 -6z"/>
<path d="M1470 4226 c0 -8 5 -18 10 -21 6 -4 9 -23 8 -43 l-3 -37 65 0 c50 1
65 4 65 15 0 11 -10 14 -35 13 -45 -3 -80 5 -80 17 0 6 12 10 28 11 l27 1 -25
8 c-19 7 -11 8 31 8 30 -1 61 2 67 6 25 15 -2 27 -56 25 -32 -1 -67 1 -79 5
-17 5 -23 3 -23 -8z"/>
<path d="M2390 4230 c-8 -5 -10 -10 -5 -10 6 0 17 5 25 10 8 5 11 10 5 10 -5
0 -17 -5 -25 -10z"/>
<path d="M1405 4220 c-8 -13 4 -32 16 -25 12 8 12 35 0 35 -6 0 -13 -4 -16
-10z"/>
<path d="M1280 4216 c0 -9 40 -13 46 -5 3 5 -6 9 -20 9 -14 0 -26 -2 -26 -4z"/>
<path d="M815 4161 c-3 -5 -1 -12 4 -15 5 -3 11 1 15 9 6 16 -9 21 -19 6z"/>
<path d="M140 4148 c0 -4 24 -7 53 -7 54 1 49 5 -15 11 -21 2 -38 0 -38 -4z"/>
<path d="M918 4153 c7 -3 16 -2 19 1 4 3 -2 6 -13 5 -11 0 -14 -3 -6 -6z"/>
<path d="M720 4139 c0 -5 5 -7 10 -4 6 3 10 8 10 11 0 2 -4 4 -10 4 -5 0 -10
-5 -10 -11z"/>
<path d="M952 4141 c-8 -5 8 -8 40 -9 40 0 47 2 28 8 -34 11 -52 11 -68 1z"/>
<path d="M1050 4140 c0 -5 7 -10 15 -10 8 0 15 5 15 10 0 6 -7 10 -15 10 -8 0
-15 -4 -15 -10z"/>
<path d="M1420 4141 c0 -6 5 -13 10 -16 6 -3 10 1 10 9 0 9 -4 16 -10 16 -5 0
-10 -4 -10 -9z"/>
<path d="M1610 4090 c0 -5 5 -10 10 -10 6 0 10 5 10 10 0 6 -4 10 -10 10 -5 0
-10 -4 -10 -10z"/>
<path d="M1383 4055 c0 -22 2 -30 4 -17 2 12 2 30 0 40 -3 9 -5 -1 -4 -23z"/>
<path d="M950 4068 c0 -4 20 -8 45 -8 59 0 59 15 0 16 -25 0 -45 -3 -45 -8z"/>
<path d="M1440 4061 c0 -11 4 -21 9 -21 18 0 21 18 6 30 -13 10 -15 9 -15 -9z"/>
<path d="M1483 3953 c9 -2 23 -2 30 0 6 3 -1 5 -18 5 -16 0 -22 -2 -12 -5z"/>
<path d="M1360 3940 c0 -5 9 -10 20 -10 11 0 20 5 20 10 0 6 -9 10 -20 10 -11
0 -20 -4 -20 -10z"/>
<path d="M1392 3908 c6 -18 28 -21 28 -4 0 9 -7 16 -16 16 -9 0 -14 -5 -12
-12z"/>
<path d="M375 3889 c-4 -5 11 -9 31 -9 21 0 34 3 31 7 -11 10 -56 12 -62 2z"/>
<path d="M1396 3864 c-3 -7 -2 -14 0 -17 9 -9 44 5 44 17 0 15 -38 15 -44 0z"/>
<path d="M1310 3852 c0 -5 7 -17 15 -28 14 -18 14 -18 15 9 0 17 -5 27 -15 27
-8 0 -15 -4 -15 -8z"/>
<path d="M1230 3809 c0 -5 4 -8 9 -4 16 9 23 -13 11 -35 -7 -13 -7 -20 -1 -20
15 0 33 39 27 56 -6 16 -46 19 -46 3z"/>
<path d="M1163 3803 c9 -2 25 -2 35 0 9 3 1 5 -18 5 -19 0 -27 -2 -17 -5z"/>
<path d="M260 3785 c0 -6 14 -12 30 -12 17 0 30 4 30 8 0 3 -13 9 -30 11 -19
3 -30 0 -30 -7z"/>
<path d="M330 3779 c0 -5 14 -9 32 -9 36 0 31 12 -7 16 -14 1 -25 -2 -25 -7z"/>
<path d="M1178 3783 c7 -3 16 -2 19 1 4 3 -2 6 -13 5 -11 0 -14 -3 -6 -6z"/>
<path d="M1325 3770 c-8 -13 15 -24 27 -12 6 6 4 11 -6 15 -8 3 -18 2 -21 -3z"/>
<path d="M13 3733 c9 -2 23 -2 30 0 6 3 -1 5 -18 5 -17 0 -22 -2 -12 -5z"/>
<path d="M520 3728 c0 -4 27 -8 60 -8 35 0 60 4 60 11 0 6 -23 9 -60 8 -33 -1
-60 -6 -60 -11z"/>
<path d="M744 3709 c-3 -6 -1 -16 5 -22 8 -8 11 -5 11 11 0 24 -5 28 -16 11z"/>
<path d="M536 3691 c-12 -19 28 -26 109 -20 l80 5 -80 2 c-45 1 -86 7 -92 13
-7 7 -13 7 -17 0z"/>
<path d="M316 3674 c-4 -9 1 -14 14 -14 23 0 27 15 6 23 -8 3 -17 -1 -20 -9z"/>
<path d="M500 3670 c0 -5 5 -10 11 -10 5 0 7 5 4 10 -3 6 -8 10 -11 10 -2 0
-4 -4 -4 -10z"/>
<path d="M790 3665 c0 -8 5 -15 10 -15 6 0 10 7 10 15 0 8 -4 15 -10 15 -5 0
-10 -7 -10 -15z"/>
<path d="M830 3661 c0 -5 5 -13 10 -16 6 -3 10 -2 10 4 0 5 -4 13 -10 16 -5 3
-10 2 -10 -4z"/>
<path d="M138 3653 c7 -3 16 -2 19 1 4 3 -2 6 -13 5 -11 0 -14 -3 -6 -6z"/>
<path d="M560 3620 c0 -5 4 -10 9 -10 6 0 13 5 16 10 3 6 -1 10 -9 10 -9 0
-16 -4 -16 -10z"/>
<path d="M835 3600 c3 -6 29 -10 57 -10 65 0 56 11 -12 16 -31 2 -49 0 -45 -6z"/>
<path d="M7920 3531 c0 -20 17 -37 27 -28 7 8 -7 47 -18 47 -5 0 -9 -9 -9 -19z"/>
<path d="M0 3274 c1 -259 5 -294 37 -294 18 0 55 48 48 62 -6 10 -5 11 6 1 31
-29 79 1 79 49 0 14 7 31 15 38 8 7 15 18 15 26 0 7 9 18 20 24 11 6 20 16 20
22 0 6 12 36 27 67 36 77 35 107 -8 142 -19 16 -39 29 -45 29 -6 0 -17 7 -25
16 -17 21 -66 46 -109 55 -19 4 -45 11 -57 14 l-23 7 0 -258z"/>
<path d="M433 3462 c-95 -9 -173 -20 -173 -25 0 -4 8 -6 18 -3 9 3 88 10 175
17 86 7 157 16 157 21 0 4 -1 7 -2 7 -2 -1 -81 -9 -175 -17z"/>
<path d="M4938 3413 c7 -3 16 -2 19 1 4 3 -2 6 -13 5 -11 0 -14 -3 -6 -6z"/>
<path d="M3663 3385 c4 -9 7 -30 7 -46 0 -18 4 -28 10 -24 6 4 10 -17 10 -54
0 -34 -4 -61 -10 -61 -15 0 -12 -26 4 -42 17 -17 32 -118 18 -118 -6 0 -13 6
-15 13 -3 7 -6 5 -6 -5 -1 -23 15 -23 162 2 65 11 121 20 124 20 7 0 -8 283
-16 292 -3 4 -53 12 -111 17 -58 6 -123 14 -144 17 -34 5 -38 4 -33 -11z m37
-205 c0 -5 -5 -10 -11 -10 -5 0 -7 5 -4 10 3 6 8 10 11 10 2 0 4 -4 4 -10z"/>
<path d="M7980 3368 c0 -11 12 -10 30 2 12 7 10 9 -8 7 -12 0 -22 -5 -22 -9z"/>
<path d="M5983 3363 c15 -2 37 -2 50 0 12 2 0 4 -28 4 -27 0 -38 -2 -22 -4z"/>
<path d="M6148 3363 c7 -3 16 -2 19 1 4 3 -2 6 -13 5 -11 0 -14 -3 -6 -6z"/>
<path d="M7195 3353 c-16 -3 -34 -9 -40 -14 -13 -13 116 0 130 12 9 9 -33 10
-90 2z"/>
<path d="M7083 3313 c-69 -13 18 -43 124 -43 77 0 106 16 51 27 l-33 7 30 7
c33 7 -135 9 -172 2z"/>
<path d="M7405 3313 c-48 -7 -54 -23 -9 -24 21 -1 44 0 49 1 6 2 25 5 43 8 17
2 32 8 32 13 0 9 -58 10 -115 2z"/>
<path d="M7910 3313 c-14 -2 -40 -9 -58 -14 -45 -15 -26 -36 30 -33 24 0 58 2
76 3 27 1 32 5 32 26 0 26 -14 29 -80 18z"/>
<path d="M3673 3245 c0 -22 2 -30 4 -17 2 12 2 30 0 40 -3 9 -5 -1 -4 -23z"/>
<path d="M7440 3260 c0 -5 25 -10 55 -10 30 0 55 5 55 10 0 6 -25 10 -55 10
-30 0 -55 -4 -55 -10z"/>
<path d="M7738 3223 c18 -2 45 -2 60 0 15 2 0 4 -33 4 -33 0 -45 -2 -27 -4z"/>
<path d="M4995 3190 c-4 -6 11 -10 39 -10 25 0 48 5 51 10 4 6 -11 10 -39 10
-25 0 -48 -4 -51 -10z"/>
<path d="M9578 3183 c7 -3 16 -2 19 1 4 3 -2 6 -13 5 -11 0 -14 -3 -6 -6z"/>
<path d="M7490 3161 c0 -5 20 -13 45 -17 52 -7 54 -11 57 -119 l3 -70 35 1
c19 1 51 4 70 8 26 5 31 5 19 -3 -18 -11 -33 -16 -294 -85 -139 -37 -174 -50
-192 -71 -30 -34 -31 -85 -3 -85 18 0 20 -7 20 -79 0 -77 -1 -79 -26 -84 -20
-3 -27 0 -34 17 -5 15 -7 9 -7 -24 0 -25 2 -37 4 -28 4 14 8 15 24 5 10 -6 19
-19 19 -29 0 -11 10 -18 28 -20 20 -2 26 -8 24 -23 -2 -19 3 -20 106 -20 78 0
114 4 125 14 14 11 17 11 17 0 0 -25 -14 -35 -64 -50 -27 -8 -56 -24 -66 -36
-21 -27 -30 -29 -30 -7 0 10 -8 6 -25 -14 -14 -17 -25 -42 -25 -58 0 -23 2
-26 10 -14 7 11 10 7 11 -20 2 -48 5 -85 14 -152 l8 -58 54 0 c52 0 55 2 66
30 6 17 15 30 19 30 11 0 10 -6 -5 -43 -16 -38 -14 -61 7 -83 9 -8 16 -22 16
-29 0 -15 10 -15 172 0 63 6 89 -9 30 -18 -247 -36 -224 -23 -237 -132 -7 -54
-13 -64 -57 -108 -26 -27 -51 -60 -54 -74 -4 -13 -12 -22 -18 -20 -6 2 -36 10
-66 17 -30 7 -60 14 -66 15 -12 4 -26 55 -14 55 4 0 20 -6 36 -14 16 -8 50
-17 76 -21 41 -6 47 -5 53 14 8 27 -1 42 -22 34 -15 -6 -14 -7 3 -14 14 -6 10
-8 -17 -8 -38 -1 -59 13 -59 41 0 14 -8 18 -40 18 -25 0 -40 -5 -41 -12 -1 -7
-7 16 -14 52 -14 70 -7 87 27 69 11 -6 18 -6 18 -1 0 6 11 12 25 14 14 3 25 1
25 -3 0 -5 9 -9 20 -9 11 0 20 6 20 14 0 14 36 16 57 3 10 -6 43 54 66 125
l15 46 -43 0 c-24 0 -49 3 -54 6 -5 4 -12 -3 -16 -14 -8 -24 -18 -25 -49 -5
-13 8 -43 16 -68 17 l-45 2 -15 56 c-75 268 -73 256 -60 349 7 47 17 113 22
146 5 38 5 64 -1 69 -8 9 -14 -18 -10 -50 1 -12 -31 -24 -64 -23 l-20 0 20 9
20 9 -20 0 c-15 1 -16 4 -7 10 20 12 42 60 32 66 -5 3 -29 -1 -53 -9 -67 -22
-117 -30 -117 -17 0 6 5 11 11 11 8 0 9 4 0 13 -6 8 -9 16 -7 18 3 3 7 17 10
32 5 31 3 31 -109 -3 -33 -10 -105 -30 -160 -45 -55 -15 -116 -32 -135 -38
-19 -6 -39 -12 -45 -13 -52 -10 -143 -38 -158 -49 -24 -17 -46 -59 -57 -110
-50 -229 -62 -298 -53 -304 6 -3 13 -13 16 -21 4 -8 5 1 2 20 -5 34 -4 34 6 8
l11 -28 199 0 c185 0 279 11 279 31 0 4 11 10 24 13 30 7 104 79 118 115 l10
26 13 -40 c7 -22 38 -98 69 -169 47 -106 56 -137 54 -175 l-3 -46 -27 80 c-51
151 -73 205 -85 205 -7 0 -13 -4 -13 -8 0 -15 -111 -75 -179 -97 -38 -13 -102
-26 -142 -30 -41 -4 -84 -11 -97 -16 -27 -10 -44 -51 -36 -86 l7 -25 13 31 13
31 99 0 c144 0 193 17 265 94 l58 61 20 -24 c52 -63 24 -122 -84 -174 -90 -44
-168 -65 -281 -73 l-88 -7 6 -26 c4 -14 9 -51 12 -82 5 -46 3 -60 -12 -77 -22
-26 -40 -28 -52 -7 -7 13 -16 14 -56 5 -26 -6 -51 -8 -55 -6 -4 3 -15 -8 -24
-23 -19 -33 -56 -43 -107 -31 -39 9 -26 13 37 10 72 -3 74 27 17 250 -14 52
-27 122 -30 155 -6 55 8 208 23 264 6 23 4 24 -31 17 -21 -4 -45 -10 -54 -13
-15 -4 -15 -3 -2 6 13 9 13 11 0 11 -9 0 -11 3 -5 8 14 10 36 73 29 84 -3 5 7
6 23 3 25 -5 25 -4 6 4 -17 8 -43 4 -105 -15 -46 -14 -114 -34 -152 -45 -38
-11 -77 -24 -87 -29 -19 -11 -46 -6 -229 35 -84 19 -535 114 -850 179 -44 9
-56 15 -58 32 -3 18 5 23 45 34 26 7 56 14 65 17 14 3 16 11 10 36 -8 36 -9
177 -2 222 4 23 2 29 -10 26 -8 -2 -67 -14 -130 -26 l-115 -21 -3 -76 c-2 -66
2 -87 34 -174 50 -136 54 -170 20 -201 -15 -13 -35 -26 -45 -28 -31 -6 -91
-42 -83 -50 4 -5 1 -5 -6 -1 -7 4 -36 -1 -65 -12 -56 -21 -182 -47 -284 -58
-35 -4 -63 -10 -63 -14 0 -5 -10 -6 -22 -2 -14 3 -19 2 -14 -6 9 -16 -38 -16
-66 -1 -13 7 -23 7 -27 2 -7 -11 -36 -10 -93 2 l-38 7 0 -64 c0 -36 3 -120 7
-188 l6 -122 41 -19 c23 -10 46 -19 51 -19 7 0 7 39 1 118 -4 64 -9 146 -10
182 -1 60 1 65 22 68 23 3 31 -13 10 -20 -9 -3 -9 -45 1 -179 7 -96 16 -177
19 -181 6 -6 287 -112 607 -229 61 -22 134 -50 162 -62 29 -11 55 -18 58 -16
3 3 6 34 7 68 l3 63 -35 13 c-19 7 -70 25 -113 40 -42 16 -75 30 -73 32 2 3
49 -9 103 -26 54 -17 101 -31 103 -31 15 0 1 182 -18 240 -32 102 -78 257
-102 345 -12 44 -30 87 -40 96 -19 17 -17 29 6 29 14 0 43 -73 73 -182 51
-187 65 -234 73 -243 6 -6 7 11 4 45 -4 30 -11 147 -16 260 -6 128 -14 206
-21 209 -6 2 -2 9 8 16 16 11 28 11 73 -1 30 -8 84 -21 120 -29 36 -7 124 -27
195 -44 72 -18 209 -50 305 -73 209 -49 350 -85 356 -91 5 -5 41 -816 46
-1020 l2 -117 96 -37 c52 -20 135 -51 183 -70 l88 -35 52 21 c29 12 62 29 73
39 l22 17 -30 195 c-32 206 -39 311 -23 307 5 -1 8 -12 7 -23 -2 -12 4 -59 12
-105 8 -46 20 -119 27 -162 6 -43 16 -80 21 -83 5 -3 5 -11 -1 -18 -7 -8 -7
-24 -1 -45 5 -18 6 -39 3 -47 -7 -18 12 -18 45 1 15 8 203 100 417 206 215
105 392 195 393 200 2 5 9 9 15 9 27 0 117 46 123 63 5 17 6 17 22 0 10 -10
32 -31 50 -45 28 -24 39 -27 82 -22 37 3 63 -1 99 -16 l49 -21 76 27 c43 15
73 30 68 33 -14 9 -2 72 15 78 20 8 28 -4 13 -22 -10 -13 -11 -20 -1 -39 19
-35 10 -62 -19 -58 -35 4 -120 -29 -120 -47 0 -8 5 -55 12 -105 21 -165 44
-191 172 -191 l80 0 78 -110 c42 -60 77 -114 78 -118 0 -13 41 -64 70 -90 34
-30 90 -90 117 -124 73 -92 163 -230 163 -250 0 -13 4 -23 9 -23 5 0 11 -11
13 -25 3 -13 2 -24 -1 -23 -40 4 -81 -4 -81 -17 0 -8 5 -15 11 -15 5 0 7 -5 4
-10 -4 -6 -1 -18 6 -26 14 -17 18 -108 7 -137 -6 -13 -19 -17 -58 -17 -27 0
-50 5 -50 10 0 6 -6 10 -12 10 -8 0 -14 -16 -16 -41 -2 -33 0 -40 12 -36 10 4
13 1 9 -9 -6 -17 -15 -18 -31 -2 -23 23 -12 -1 12 -27 l24 -26 4 23 c4 23 4
23 18 -4 l13 -28 624 0 623 0 0 669 0 669 -28 29 c-51 50 -48 102 3 69 l25
-16 0 151 0 151 -25 -6 c-13 -3 -37 -11 -52 -18 -34 -14 -73 -21 -73 -13 0 3
6 16 14 28 8 12 17 49 21 82 11 97 23 123 61 127 18 2 31 1 28 -3 -2 -4 3 -9
10 -12 12 -5 15 6 15 56 0 59 -2 63 -25 65 -15 1 -24 -4 -24 -12 0 -9 8 -13
23 -10 13 2 16 1 7 -3 -8 -3 -20 -13 -27 -22 -9 -13 -12 -10 -18 19 -4 26 -1
176 4 187 4 7 41 -12 41 -23 0 -7 5 -16 10 -19 6 -4 10 11 10 39 0 44 0 45
-37 48 -36 3 -37 4 -49 63 -9 47 -62 178 -91 227 -2 5 37 5 86 1 l91 -6 -1
214 c0 118 -3 209 -5 202 -6 -14 -34 -5 -51 16 -11 14 -12 14 -13 0 0 -15 -4
-15 -45 -1 -35 11 -43 17 -35 27 7 8 7 15 1 19 -5 3 -11 1 -13 -6 -3 -8 -11
-7 -28 5 -18 13 -27 14 -38 5 -11 -10 -13 -8 -10 8 4 23 39 18 -362 48 -179
14 -347 31 -375 40 -81 23 -140 28 -330 27 -204 -1 -470 15 -752 45 -33 3 -53
2 -53 -5z m420 -181 c0 -5 -4 -10 -10 -10 -5 0 -10 5 -10 10 0 6 5 10 10 10 6
0 10 -4 10 -10z m-170 -50 c0 -5 -9 -10 -21 -10 -11 0 -17 5 -14 10 3 6 13 10
21 10 8 0 14 -4 14 -10z m-303 -76 c-3 -3 -12 -4 -19 -1 -8 3 -5 6 6 6 11 1
17 -2 13 -5z m-65 -11 c-6 -2 -9 -9 -6 -14 3 -6 -8 -15 -25 -22 -19 -7 -31
-18 -31 -29 0 -11 -7 -18 -20 -18 -13 0 -20 -7 -20 -20 0 -11 -5 -20 -11 -20
-6 0 -8 9 -4 23 6 21 6 21 -9 3 -20 -24 -35 -12 -18 14 7 11 12 26 12 34 0 14
28 28 90 45 38 10 63 13 42 4z m1901 -81 c15 -14 17 -13 17 1 0 18 15 23 24 9
6 -11 -21 -52 -35 -52 -5 0 -9 5 -9 12 0 6 -10 23 -22 36 -23 26 -8 21 25 -6z
m-2558 -92 c-19 -21 -35 -26 -35 -12 0 5 10 14 23 20 31 15 32 14 12 -8z m82
14 c-3 -3 -12 -4 -19 -1 -8 3 -5 6 6 6 11 1 17 -2 13 -5z m-144 -41 c-7 -2
-21 -2 -30 0 -10 3 -4 5 12 5 17 0 24 -2 18 -5z m-164 -42 c11 -7 10 -10 -6
-15 -27 -9 -60 3 -41 15 17 11 29 11 47 0z m-76 -21 c-3 -11 -10 -20 -15 -20
-5 0 -6 5 -3 10 3 6 0 10 -7 10 -9 0 -9 3 2 10 23 15 29 12 23 -10z m-46 -6
c-3 -3 -12 -4 -19 -1 -8 3 -5 6 6 6 11 1 17 -2 13 -5z m1205 -129 c-2 -14 -6
-25 -8 -25 -2 0 -4 11 -4 25 0 14 4 25 9 25 4 0 6 -11 3 -25z m-72 -82 c0 -9
-3 -14 -6 -10 -4 3 -20 -1 -36 -9 -23 -12 -28 -20 -22 -37 6 -21 5 -21 -12 -4
-22 20 -12 44 27 64 33 17 49 16 49 -4z m4 -35 l26 -11 -22 -19 -21 -18 21
-21 c32 -29 27 -31 -13 -8 -34 21 -46 39 -24 39 6 0 9 6 6 14 -4 10 1 12 16 9
20 -4 20 -3 -3 11 -30 18 -21 21 14 4z m56 -108 c0 -5 -4 -10 -10 -10 -5 0
-10 5 -10 10 0 6 5 10 10 10 6 0 10 -4 10 -10z m-136 -16 c3 -9 6 -29 6 -45 0
-16 5 -29 10 -29 6 0 10 -4 10 -9 0 -5 -9 -7 -19 -4 -18 5 -31 40 -31 84 0 23
16 25 24 3z m56 -9 c0 -8 8 -15 18 -16 14 0 14 -2 -3 -9 -34 -15 -45 -11 -45
15 0 16 6 25 15 25 8 0 15 -7 15 -15z m67 -50 c-7 -18 -35 -31 -45 -21 -3 4
-2 10 4 14 6 4 14 16 18 26 5 14 10 16 18 8 6 -6 8 -18 5 -27z m17 -20 c-4 -8
-1 -15 5 -15 25 0 9 -15 -18 -16 l-28 -1 20 24 c24 27 29 29 21 8z m-77 -1
c-3 -3 -12 -4 -19 -1 -8 3 -5 6 6 6 11 1 17 -2 13 -5z m-364 -141 c-7 -2 -21
-2 -30 0 -10 3 -4 5 12 5 17 0 24 -2 18 -5z m795 -59 c1 -11 -6 -25 -18 -32
-18 -11 -20 -10 -20 16 0 16 3 32 7 36 11 11 28 1 31 -20z m-963 -5 c4 -6 -2
-21 -14 -33 -12 -12 -21 -26 -21 -31 0 -5 9 1 20 13 21 22 40 29 40 13 0 -19
-81 -98 -132 -129 -69 -41 -229 -82 -312 -81 l-61 2 69 8 c146 17 283 68 339
127 l29 30 -18 39 c-9 21 -19 41 -21 46 -6 11 75 8 82 -4z m215 -11 c0 -7 3
-24 6 -38 8 -31 -7 -17 -24 23 -10 22 -9 27 3 27 8 0 15 -6 15 -12z m-33 -85
c-3 -10 -5 -4 -5 12 0 17 2 24 5 18 2 -7 2 -21 0 -30z m-2747 -23 c8 -5 12
-11 9 -14 -3 -3 -14 1 -25 9 -21 16 -8 20 16 5z m2600 -10 c0 -5 -2 -10 -4
-10 -3 0 -8 5 -11 10 -3 6 -1 10 4 10 6 0 11 -4 11 -10z m-2635 -20 c13 -5 14
-9 5 -9 -8 0 -24 4 -35 9 -13 5 -14 9 -5 9 8 0 24 -4 35 -9z m2766 -13 c-10
-9 -11 -8 -5 6 3 10 9 15 12 12 3 -3 0 -11 -7 -18z m39 -14 c0 -7 -4 -13 -10
-13 -5 0 -10 12 -10 28 0 21 2 24 10 12 5 -8 10 -21 10 -27z m749 -27 c-9 -8
-10 -7 -5 7 3 10 7 24 7 30 1 7 3 4 6 -7 3 -10 -1 -23 -8 -30z m-947 19 c27
-4 49 -13 52 -22 8 -19 -4 -63 -16 -63 -6 0 -8 6 -5 14 5 13 -30 26 -70 26
-13 0 -13 -2 -2 -16 12 -15 11 -16 -11 -9 -14 4 -34 15 -44 26 -19 18 -19 19
-1 39 10 11 25 18 34 16 9 -3 37 -8 63 -11z m142 -5 c16 -6 26 -17 26 -30 0
-13 7 -20 20 -20 20 0 38 -25 26 -37 -7 -7 -84 15 -103 30 -18 13 -6 27 23 27
13 0 24 5 24 10 0 6 -11 10 -25 10 -14 0 -25 5 -25 10 0 12 2 12 34 0z m-2477
-56 c116 -39 149 -53 123 -54 -15 0 -241 77 -249 86 -11 10 25 1 126 -32z
m2218 8 c-3 -3 -11 0 -18 7 -9 10 -8 11 6 5 10 -3 15 -9 12 -12z m1080 -69
c-8 -79 -24 -118 -25 -61 0 20 -3 44 -6 52 -5 12 -2 15 10 10 13 -5 16 1 16
30 0 20 3 36 6 36 4 0 3 -30 -1 -67z m-1947 28 c29 -10 54 -21 55 -26 1 -4
-26 -18 -60 -31 l-63 -23 0 49 c0 28 4 50 8 50 4 0 31 -8 60 -19z m1888 -18
c-10 -10 -19 5 -10 18 6 11 8 11 12 0 2 -7 1 -15 -2 -18z m-638 -94 c-3 -8 -7
-3 -11 10 -4 17 -3 21 5 13 5 -5 8 -16 6 -23z m12 -29 c0 -5 -4 -10 -10 -10
-5 0 -10 5 -10 10 0 6 5 10 10 10 6 0 10 -4 10 -10z m-155 -20 l20 -9 -20 0
c-11 0 -27 4 -35 9 -13 9 -13 10 0 9 8 0 24 -4 35 -9z m54 -14 c7 -8 8 -17 3
-20 -6 -3 -12 3 -15 14 -6 24 -4 25 12 6z m2382 -19 c-10 -9 -11 -8 -5 6 3 10
9 15 12 12 3 -3 0 -11 -7 -18z m-1661 3 c0 -5 -4 -10 -10 -10 -5 0 -10 5 -10
10 0 6 5 10 10 10 6 0 10 -4 10 -10z m14 -265 c-4 -8 -17 -15 -30 -15 -42 0
-25 27 18 29 12 1 15 -4 12 -14z m-64 -9 c0 -2 -9 -6 -20 -9 -11 -3 -18 -1
-14 4 5 9 34 13 34 5z m385 -356 c3 -5 -1 -10 -10 -10 -9 0 -13 5 -10 10 3 6
8 10 10 10 2 0 7 -4 10 -10z m255 -95 c7 -8 8 -15 2 -15 -5 0 -15 7 -22 15 -7
8 -8 15 -2 15 5 0 15 -7 22 -15z m80 -36 c22 -12 40 -25 40 -31 0 -5 -13 0
-29 11 -16 12 -34 21 -39 21 -6 0 -14 5 -17 10 -9 15 0 12 45 -11z"/>
<path d="M7320 2820 c-21 -7 -21 -8 -5 -9 11 0 27 4 35 9 18 11 5 11 -30 0z"/>
<path d="M6458 2593 c7 -3 16 -2 19 1 4 3 -2 6 -13 5 -11 0 -14 -3 -6 -6z"/>
<path d="M6877 1699 c7 -7 15 -10 18 -7 3 3 -2 9 -12 12 -14 6 -15 5 -6 -5z"/>
<path d="M9563 3143 c9 -2 23 -2 30 0 6 3 -1 5 -18 5 -16 0 -22 -2 -12 -5z"/>
<path d="M5420 3016 c-75 -15 -80 -20 -80 -76 0 -47 33 -175 48 -184 4 -2 34
1 67 8 l60 12 0 127 c0 144 8 134 -95 113z"/>
<path d="M6825 2990 c-4 -6 18 -10 60 -10 42 0 64 4 60 10 -3 6 -30 10 -60 10
-30 0 -57 -4 -60 -10z"/>
<path d="M4785 2973 c-11 -2 -56 -10 -100 -19 -125 -23 -125 -23 -125 -44 0
-16 5 -19 23 -15 12 2 53 11 90 20 38 8 86 15 108 15 21 0 39 4 39 9 0 5 3 16
6 25 6 16 -1 18 -41 9z"/>
<path d="M9550 2970 c0 -5 5 -10 11 -10 5 0 7 5 4 10 -3 6 -8 10 -11 10 -2 0
-4 -4 -4 -10z"/>
<path d="M3378 2933 c-33 -5 -37 -23 -5 -23 43 0 97 13 91 21 -5 9 -35 10 -86
2z"/>
<path d="M3170 2817 c0 -5 16 -51 36 -101 33 -80 38 -106 45 -216 4 -69 12
-189 18 -267 7 -78 10 -147 9 -153 -2 -6 20 -20 47 -31 139 -55 369 -138 372
-135 2 2 -1 86 -7 187 -6 101 -13 281 -16 400 l-6 216 -192 42 c-302 68 -306
68 -306 58z m417 -483 c-3 -3 -12 -4 -19 -1 -8 3 -5 6 6 6 11 1 17 -2 13 -5z
m-36 -129 c-6 -49 -8 -91 -6 -94 3 -2 30 -4 60 -4 55 0 72 -10 35 -22 -11 -4
-39 -5 -63 -3 l-42 3 -3 -40 c-2 -22 -8 -44 -13 -50 -10 -10 -10 2 7 170 6 67
23 139 30 132 2 -2 0 -44 -5 -92z m129 -75 c0 -5 -2 -10 -4 -10 -3 0 -8 5 -11
10 -3 6 -1 10 4 10 6 0 11 -4 11 -10z m-62 -7 c-10 -2 -26 -2 -35 0 -10 3 -2
5 17 5 19 0 27 -2 18 -5z m-248 -57 c0 -11 -19 -15 -25 -6 -3 5 1 10 9 10 9 0
16 -2 16 -4z m40 -16 c0 -5 -2 -10 -4 -10 -3 0 -8 5 -11 10 -3 6 -1 10 4 10 6
0 11 -4 11 -10z"/>
<path d="M5189 2755 c-3 -2 -30 -9 -60 -14 l-54 -10 57 4 c53 3 117 24 77 25
-9 0 -18 -2 -20 -5z"/>
<path d="M1468 2743 c7 -3 16 -2 19 1 4 3 -2 6 -13 5 -11 0 -14 -3 -6 -6z"/>
<path d="M3839 2715 c-67 -17 -71 -22 -65 -64 3 -20 8 -115 12 -211 3 -96 7
-176 8 -177 1 -1 23 -8 49 -15 69 -18 74 -10 57 104 -22 153 -25 209 -17 282
11 95 11 95 -44 81z"/>
<path d="M5008 2723 c12 -2 32 -2 45 0 12 2 2 4 -23 4 -25 0 -35 -2 -22 -4z"/>
<path d="M7180 2679 c-6 -23 -9 -44 -6 -47 3 -3 6 2 6 12 0 9 3 15 8 13 4 -3
8 10 9 29 2 45 -4 43 -17 -7z"/>
<path d="M4488 2613 c7 -3 16 -2 19 1 4 3 -2 6 -13 5 -11 0 -14 -3 -6 -6z"/>
<path d="M7167 2613 c-4 -3 -7 -11 -7 -17 0 -6 5 -5 12 2 6 6 9 14 7 17 -3 3
-9 2 -12 -2z"/>
<path d="M5095 2591 c-16 -3 -30 -11 -30 -16 0 -13 114 -18 145 -6 l25 9 -28
11 c-30 12 -64 12 -112 2z"/>
<path d="M4390 2580 c-8 -5 -10 -10 -5 -10 6 0 17 5 25 10 8 5 11 10 5 10 -5
0 -17 -5 -25 -10z"/>
<path d="M7150 2565 c0 -11 -3 -31 -6 -45 -4 -18 0 -15 11 9 10 24 12 38 5 45
-7 7 -10 4 -10 -9z"/>
<path d="M4285 2555 c-33 -8 -93 -17 -133 -20 -40 -4 -74 -10 -76 -14 -3 -4
39 -1 92 5 101 13 202 33 202 40 0 6 -18 4 -85 -11z"/>
<path d="M4503 2501 c-76 -47 -259 -90 -380 -91 l-53 0 0 -52 c0 -79 4 -82 96
-74 161 15 384 91 384 131 0 8 5 15 11 15 13 0 2 60 -15 77 -9 10 -18 9 -43
-6z"/>
<path d="M4783 2426 c4 -9 9 -91 12 -183 3 -93 10 -238 15 -323 5 -85 12 -217
16 -293 l6 -139 34 -14 c44 -18 65 -18 40 1 -18 14 -19 15 -2 15 11 0 16 5 13
14 -4 10 6 14 41 15 45 1 114 20 128 34 4 4 31 7 61 7 46 0 53 2 53 20 0 16 7
20 30 20 17 0 30 5 30 10 0 6 16 10 35 10 19 0 35 3 35 8 0 4 25 20 55 37 30
16 55 33 55 37 0 5 11 13 25 18 14 5 28 17 31 25 4 8 14 15 23 15 9 0 22 5 29
12 17 17 23 5 13 -28 -5 -16 -17 -99 -27 -184 -12 -110 -22 -160 -33 -171 -9
-9 -44 -26 -78 -39 -35 -12 -63 -27 -63 -32 0 -5 -9 -6 -20 -3 -11 3 -20 2
-20 -4 0 -5 24 -18 53 -29 313 -118 404 -152 409 -152 3 0 4 17 3 37 -2 21 -6
106 -10 189 l-7 151 -40 -14 c-23 -8 -68 -13 -102 -11 l-61 3 3 30 c13 139 26
208 45 226 20 19 67 27 67 12 0 -5 18 -9 41 -10 l41 -3 -8 148 c-4 81 -10 191
-13 246 l-6 99 -95 22 c-52 12 -149 34 -215 48 -66 15 -172 38 -235 52 -63 14
-140 30 -170 36 -30 6 -80 17 -110 24 -111 26 -133 28 -127 11z m36 -131 c1
-17 -1 -17 -9 -5 -5 8 -9 26 -9 40 0 23 1 23 9 5 5 -11 9 -29 9 -40z m103
-643 c-11 -30 -18 12 -19 101 l-1 92 12 -90 c7 -49 11 -96 8 -103z m518 88 c0
-5 -8 -10 -17 -10 -15 0 -16 2 -3 10 19 12 20 12 20 0z m-340 -120 c-8 -5 -22
-9 -30 -9 -10 0 -8 3 5 9 27 12 43 12 25 0z m529 -186 c2 -2 -5 -6 -15 -9 -10
-4 -27 -11 -36 -16 -15 -8 -18 -5 -18 16 0 22 3 24 33 18 17 -3 34 -7 36 -9z"/>
<path d="M6205 2410 c3 -5 8 -10 11 -10 2 0 4 5 4 10 0 6 -5 10 -11 10 -5 0
-7 -4 -4 -10z"/>
<path d="M5935 2380 c-3 -5 -2 -10 4 -10 5 0 13 5 16 10 3 6 2 10 -4 10 -5 0
-13 -4 -16 -10z"/>
<path d="M5848 2363 c-16 -2 -28 -9 -28 -14 0 -10 32 -4 60 12 16 9 14 9 -32
2z"/>
<path d="M1555 2270 c-3 -5 -15 -10 -26 -10 -30 0 -22 -18 9 -19 88 -2 86 -2
76 23 -7 17 -49 22 -59 6z"/>
<path d="M3978 2233 c6 -2 18 -2 25 0 6 3 1 5 -13 5 -14 0 -19 -2 -12 -5z"/>
<path d="M2282 2126 c-60 -15 -72 -23 -52 -36 28 -17 200 9 200 30 0 23 -67
25 -148 6z"/>
<path d="M9573 2074 c-27 -30 -27 -31 -8 -31 8 0 19 13 24 29 12 34 12 34 -16
2z"/>
<path d="M2507 2026 c-46 -17 -51 -21 -42 -37 17 -27 219 6 220 36 0 16 -135
16 -178 1z"/>
<path d="M9530 1900 c0 -8 51 -40 65 -40 16 0 1 28 -20 38 -32 15 -45 15 -45
2z"/>
<path d="M2435 1743 c-21 -54 -46 -118 -56 -142 -11 -24 -19 -48 -19 -53 0 -5
-7 -17 -16 -26 -17 -16 -63 -24 -324 -57 -138 -18 -154 -21 -146 -33 2 -4 49
-2 103 5 54 7 162 19 241 28 78 8 151 21 162 27 19 12 52 93 101 245 15 47 18
67 10 77 -6 7 -8 16 -4 19 3 4 2 7 -4 7 -6 0 -28 -44 -48 -97z"/>
<path d="M7191 1804 l-1 -42 43 3 c57 4 59 7 12 14 -34 5 -41 10 -46 36 -6 27
-7 26 -8 -11z"/>
<path d="M7362 1795 c0 -16 2 -22 5 -12 2 9 2 23 0 30 -3 6 -5 -1 -5 -18z"/>
<path d="M7303 1753 c15 -2 37 -2 50 0 12 2 0 4 -28 4 -27 0 -38 -2 -22 -4z"/>
<path d="M7361 1724 c0 -11 3 -14 6 -6 3 7 2 16 -1 19 -3 4 -6 -2 -5 -13z"/>
<path d="M1910 1702 c0 -12 4 -22 9 -22 10 0 9 26 -2 36 -4 4 -7 -2 -7 -14z"/>
<path d="M7481 1444 c0 -11 3 -14 6 -6 3 7 2 16 -1 19 -3 4 -6 -2 -5 -13z"/>
<path d="M1910 940 c17 -28 30 -55 30 -61 0 -6 10 -31 21 -57 12 -26 25 -58
28 -71 4 -14 16 -29 26 -35 11 -6 39 -24 62 -39 24 -15 43 -24 43 -19 0 5 -11
14 -25 20 -14 6 -25 16 -25 22 0 6 5 8 12 4 6 -4 8 -3 5 4 -4 5 -15 8 -25 6
-10 -2 -24 6 -35 22 -20 26 -15 46 5 26 7 -7 16 -12 21 -12 10 0 -34 55 -46
57 -13 3 -37 31 -37 42 0 6 -5 11 -10 11 -6 0 -10 6 -8 13 1 6 -6 24 -16 39
-10 15 -14 33 -10 39 4 7 3 9 -3 6 -6 -4 -13 2 -16 13 -3 11 -10 20 -16 20 -6
0 3 -23 19 -50z"/>
<path d="M1940 936 c0 -2 8 -10 18 -17 15 -13 16 -12 3 4 -13 16 -21 21 -21
13z"/>
<path d="M5155 897 c-118 -31 -146 -90 -62 -134 41 -21 181 -30 230 -14 47 16
87 48 87 70 0 65 -140 107 -255 78z"/>
<path d="M1890 736 c0 -8 4 -17 9 -20 5 -4 7 3 4 14 -6 23 -13 26 -13 6z"/>
<path d="M2155 688 c4 -9 -1 -22 -9 -31 -14 -13 -13 -17 9 -31 43 -28 138 -67
125 -51 -7 8 -18 15 -25 15 -7 0 -12 6 -11 13 0 6 -20 32 -47 56 -26 24 -45
37 -42 29z m85 -78 c0 -5 -2 -10 -4 -10 -3 0 -8 5 -11 10 -3 6 -1 10 4 10 6 0
11 -4 11 -10z"/>
<path d="M7488 569 c-46 -50 -89 -102 -97 -117 -15 -30 -108 -150 -154 -199
-27 -29 -37 -33 -84 -33 -29 0 -62 6 -73 12 -18 11 -23 9 -44 -15 -13 -15 -27
-27 -32 -27 -4 0 -3 5 4 12 7 7 12 18 12 26 0 27 -68 -88 -74 -125 -9 -58 5
-97 37 -101 19 -2 30 4 43 22 21 33 38 33 32 1 l-5 -25 625 0 626 0 -44 46
c-302 313 -484 444 -688 497 l-51 13 39 52 c65 85 20 61 -72 -39z m-303 -478
c17 -3 26 -9 20 -12 -5 -3 -32 0 -60 7 -37 9 -42 12 -20 12 17 0 44 -3 60 -7z
m-205 -56 c0 -8 -4 -15 -10 -15 -5 0 -10 7 -10 15 0 8 5 15 10 15 6 0 10 -7
10 -15z"/>
<path d="M2300 556 c0 -2 7 -7 16 -10 8 -3 12 -2 9 4 -6 10 -25 14 -25 6z"/>
<path d="M1976 477 c3 -10 9 -15 12 -12 3 3 0 11 -7 18 -10 9 -11 8 -5 -6z"/>
<path d="M2430 430 c0 -5 5 -10 10 -10 6 0 10 5 10 10 0 6 -4 10 -10 10 -5 0
-10 -4 -10 -10z"/>
<path d="M2495 410 c3 -5 11 -10 16 -10 6 0 7 5 4 10 -3 6 -11 10 -16 10 -6 0
-7 -4 -4 -10z"/>
<path d="M2575 377 c18 -15 18 -16 3 -17 -31 0 -19 -19 15 -22 22 -3 9 -7 -40
-12 l-73 -9 0 -38 c0 -39 0 -39 40 -39 l40 0 0 -40 c0 -29 4 -40 15 -40 11 0
15 -11 15 -40 l0 -40 40 0 40 0 0 -40 0 -40 165 0 165 0 0 23 c0 29 -10 40
-24 28 -8 -7 -23 13 -49 62 -67 128 -94 165 -139 189 -78 41 -143 67 -146 57
-2 -5 -11 -9 -19 -9 -9 0 -13 6 -9 15 3 9 0 15 -8 15 -8 0 -23 3 -33 6 -16 6
-16 5 2 -9z m100 -37 c3 -5 -1 -10 -9 -10 -8 0 -18 5 -21 10 -3 6 1 10 9 10 8
0 18 -4 21 -10z"/>
<path d="M5970 219 c-63 -50 -151 -118 -194 -152 l-80 -62 47 -3 c47 -3 49 -2
195 115 81 65 158 128 171 142 24 23 24 24 6 37 -10 8 -21 14 -24 14 -3 -1
-58 -41 -121 -91z"/>
<path d="M6595 290 c-3 -5 -1 -10 4 -10 6 0 11 5 11 10 0 6 -2 10 -4 10 -3 0
-8 -4 -11 -10z"/>
<path d="M6625 270 c-3 -5 -1 -10 4 -10 6 0 11 5 11 10 0 6 -2 10 -4 10 -3 0
-8 -4 -11 -10z"/>
<path d="M6540 260 c0 -5 9 -10 21 -10 11 0 17 5 14 10 -3 6 -13 10 -21 10 -8
0 -14 -4 -14 -10z"/>
<path d="M8402 180 c0 -14 2 -19 5 -12 2 6 2 18 0 25 -3 6 -5 1 -5 -13z"/>
<path d="M6830 179 c0 -5 5 -7 10 -4 6 3 10 8 10 11 0 2 -4 4 -10 4 -5 0 -10
-5 -10 -11z"/>
<path d="M3065 30 c10 -11 20 -20 23 -20 3 0 -3 9 -13 20 -10 11 -20 20 -23
20 -3 0 3 -9 13 -20z"/>
</g>
</svg>
